<?xml version="1.0"?>
<!DOCTYPE svg PUBLIC "-//W3C//DTD SVG 1.1//EN" "http://www.w3.org/Graphics/SVG/1.1/DTD/svg11.dtd">
<svg width="340.86097842440233mm" height="318.75052085450216mm" viewBox="0 0 340.86097842440233 318.75052085450216" xmlns="http://www.w3.org/2000/svg" version="1.1">
<g id="Part__Part2DObjectPython013" transform="translate(3.341774,315.408747) scale(1,-1)">
<path id="Part__Part2DObjectPython013_w0000"  d="M 190.12855126675305 99.12027732124884 L 203.23575084362108 82.71292167653417 A 2 2 0 0 1 205.732 79.5877L 261.17742982784546 123.88062504637195 L 334.17742982784546 123.88062504637206 L 183.8426614498324 312.0669722579453 L 163.69327622964568 263.5896551206206 L 41.02876021915961 165.59773447451227 L 39.06513248741596 164.02906849737613 L 6.971605218648343e-15 132.8214504572142 L 106.10590133655042 2.7206342813712495e-14 L 145.1710338239664 31.20761804016187 L 147.13466155571007 32.77628401729803 L 178.38676754564284 57.74237844942755 A 2 2 0 0 1 175.89 60.8676L 162.78295852556192 77.27494469313551 A 5 5 0 1 0 170.596 83.5165L 186.19979404312602 63.98390205745992 L 197.91933378935084 73.34618746950851 L 182.31552476926987 92.87875371321645 A 5 5 0 1 0 190.129 99.1203" stroke="#000080" stroke-width="0.7 px" style="stroke-width:0.7;stroke-miterlimit:4;stroke-dasharray:none;stroke-linecap:square;fill:none;fill-opacity:1;fill-rule: evenodd"/>
<title>b'Part__Part2DObjectPython013'</title>
</g>
<g id="Part__Part2DObjectPython014" transform="translate(3.341774,315.408747) scale(1,-1)">
<path id="Part__Part2DObjectPython014_w0000"  d="M 146.15284768983827 31.991951028729957 L 40.04694635328778 164.8134014859442 " stroke="#c00000" stroke-width="0.7 px" style="stroke-width:0.7;stroke-miterlimit:4;stroke-dasharray:3.0,2.0,0.2,2.0;stroke-linecap:square;fill:none;fill-opacity:1;fill-rule: evenodd"/>
<title>b'Part__Part2DObjectPython014'</title>
</g>
<g id="Part__Part2DObjectPython015" transform="translate(3.341774,315.408747) scale(1,-1)">
<path id="Part__Part2DObjectPython015_w0000"  d="M 102.00588223333042 26.1626700024268 A 3 3 0 0 1 105.751 21.4749L 109.65730964689146 24.595615907953068 A 7.5 7.5 0 1 1 105.912 29.2834L 102.00588223333042 26.1626700024268 " stroke="#ff5733" stroke-width="0.7 px" style="stroke-width:0.7;stroke-miterlimit:4;stroke-dasharray:none;stroke-linecap:square;fill:none;fill-opacity:1;fill-rule: evenodd"/>
<path id="Part__Part2DObjectPython015_w0001"  d="M 20.866075328909538 127.73201446970825 A 3 3 0 0 1 24.611 123.044L 28.517502742470555 126.16496037523451 A 7.5 7.5 0 1 1 24.7726 130.853L 20.866075328909538 127.73201446970825 " stroke="#ff5733" stroke-width="0.7 px" style="stroke-width:0.7;stroke-miterlimit:4;stroke-dasharray:none;stroke-linecap:square;fill:none;fill-opacity:1;fill-rule: evenodd"/>
<title>b'Part__Part2DObjectPython015'</title>
</g>
<g id="Part__Part2DObjectPython016" transform="translate(3.341774,315.408747) scale(1,-1)">
<circle cx="143.38720666556964" cy="135.78543479907395" r="2.0" stroke="#ff5733" stroke-width="0.7 px" style="stroke-width:0.7;stroke-miterlimit:4;stroke-dasharray:none;stroke-linecap:square;fill:none"/>
<circle cx="193.38720666556964" cy="135.785434799074" r="2.0" stroke="#ff5733" stroke-width="0.7 px" style="stroke-width:0.7;stroke-miterlimit:4;stroke-dasharray:none;stroke-linecap:square;fill:none"/>
<circle cx="243.38720666556964" cy="135.7854347990741" r="2.0" stroke="#ff5733" stroke-width="0.7 px" style="stroke-width:0.7;stroke-miterlimit:4;stroke-dasharray:none;stroke-linecap:square;fill:none"/>
<circle cx="249.8300435641546" cy="149.35651424545068" r="2.0" stroke="#ff5733" stroke-width="0.7 px" style="stroke-width:0.7;stroke-miterlimit:4;stroke-dasharray:none;stroke-linecap:square;fill:none"/>
<circle cx="169.60066413899767" cy="244.53070561106756" r="2.0" stroke="#ff5733" stroke-width="0.7 px" style="stroke-width:0.7;stroke-miterlimit:4;stroke-dasharray:none;stroke-linecap:square;fill:none"/>
<circle cx="160.0053671823922" cy="221.445422933254" r="2.0" stroke="#ff5733" stroke-width="0.7 px" style="stroke-width:0.7;stroke-miterlimit:4;stroke-dasharray:none;stroke-linecap:square;fill:none"/>
<circle cx="150.41007022578674" cy="198.36014025544046" r="2.0" stroke="#ff5733" stroke-width="0.7 px" style="stroke-width:0.7;stroke-miterlimit:4;stroke-dasharray:none;stroke-linecap:square;fill:none"/>
<circle cx="203.01861650391174" cy="207.95421297657458" r="2.0" stroke="#ff5733" stroke-width="0.7 px" style="stroke-width:0.7;stroke-miterlimit:4;stroke-dasharray:none;stroke-linecap:square;fill:none"/>
<title>b'Part__Part2DObjectPython016'</title>
</g>
</svg>