999
FreeCAD v1.0 39319 (Git)
  0
SECTION
  2
HEADER
  9
$ACADVER
  1
AC1014
  9
$ACADMAINTVER
 70
     9
  9
$DWGCODEPAGE
  3
ANSI_1252
  9
$TEXTSTYLE
  7
STANDARD
  9
$DIMSTYLE
  2
STANDARD
  9
$DIMTXSTY
  7
STANDARD
  9
$CMLSTYLE
  2
STANDARD
  9
$LUNITS
 70
2
  9
$INSUNITS
 70
4
  9
$PEXTMAX
 10
50
 20
50
 30
50
  9
$PEXTMIN
 10
0
 20
0
 30
0
  9
$HANDSEED
  5
FFFF
  0
ENDSEC
  0
SECTION
  2
CLASSES
  0
CLASS
  1
ACDBDICTIONARYWDFLT
  2
AcDbDictionaryWithDefault
  3
ObjectDBX Classes
 90
        0
280
     0
281
     0
  0
CLASS
  1
XRECORD
  2
AcDbXrecord
  3
ObjectDBX Classes
 90
        0
280
     0
281
     0
  0
CLASS
  1
LWPOLYLINE
  2
AcDbPolyline
  3
ObjectDBX Classes
 90
        0
280
     0
281
     1
  0
ENDSEC
  0
SECTION
  2
TABLES
  0
TABLE
  2
VPORT
  5
20
330
0
100
AcDbSymbolTable
 70
     1
  0
VPORT
  5
21
330
20
100
AcDbSymbolTableRecord
100
AcDbViewportTableRecord
  2
*ACTIVE
 70
     0
  0
ENDTAB
  0
TABLE
  2
LTYPE
  5
22
330
0
100
AcDbSymbolTable
 70
     1
  0
LTYPE
  5
23
330
21
100
AcDbSymbolTableRecord
100
AcDbLinetypeTableRecord
  2
BYBLOCK
 70
     0
  3

 72
    65
 73
     0
 40
0.0
  0
LTYPE
  5
24
330
21
100
AcDbSymbolTableRecord
100
AcDbLinetypeTableRecord
  2
BYLAYER
 70
     0
  3

 72
    65
 73
     0
 40
0.0
  0
LTYPE
  5
25
330
21
100
AcDbSymbolTableRecord
100
AcDbLinetypeTableRecord
  2
CONTINUOUS
 70
     0
  3
Solid line
 72
    65
 73
     0
 40
0.0
  0
ENDTAB
  0
TABLE
  2
LAYER
  5
AB3
330
0
100
AcDbSymbolTable
 70
8
  0
LAYER
  5
AB4
330
AB3
100
AcDbSymbolTableRecord
100
AcDbLayerTableRecord
  2
0
 70
   0
 62
   7
  6
CONTINUOUS
  0
LAYER
  5
AB5
330
AB3
100
AcDbSymbolTableRecord
100
AcDbLayerTableRecord
  2
none
 70
    0
 62
    7
  6
CONTINUOUS
  0
LAYER
  5
AB6
330
AB3
100
AcDbSymbolTableRecord
100
AcDbLayerTableRecord
  2
Shape2DView001
 70
    0
 62
    7
  6
CONTINUOUS
  0
LAYER
  5
AB7
330
AB3
100
AcDbSymbolTableRecord
100
AcDbLayerTableRecord
  2
Shape2DView002
 70
    0
 62
    7
  6
CONTINUOUS
  0
LAYER
  5
AB8
330
AB3
100
AcDbSymbolTableRecord
100
AcDbLayerTableRecord
  2
Shape2DView003
 70
    0
 62
    7
  6
CONTINUOUS
  0
LAYER
  5
AB9
330
AB3
100
AcDbSymbolTableRecord
100
AcDbLayerTableRecord
  2
Shape2DView004
 70
    0
 62
    7
  6
CONTINUOUS
  0
LAYER
  5
ABA
330
AB3
100
AcDbSymbolTableRecord
100
AcDbLayerTableRecord
  2
Shape2DView005
 70
    0
 62
    7
  6
CONTINUOUS
  0
LAYER
  5
ABB
330
AB3
100
AcDbSymbolTableRecord
100
AcDbLayerTableRecord
  2
Shape2DView
 70
    0
 62
    7
  6
CONTINUOUS
  0
ENDTAB
  0
TABLE
  2
STYLE
  5
70
330
0
100
AcDbSymbolTable
 70
     2
  0
STYLE
  5
71
330
70
100
AcDbSymbolTableRecord
100
AcDbTextStyleTableRecord
  2
STANDARD
 70
     0
 40
0.0
 41
1.0
 50
0.0
 71
     0
 42
2.5
  3
arial.ttf
  4

  0
STYLE
  5
72
330
70
100
AcDbSymbolTableRecord
100
AcDbTextStyleTableRecord
  2
ANNOTATIVE
 70
     0
 40
0.0
 41
1.0
 50
0.0
 71
     0
 42
2.5
  3
arial.ttf
  4

  0
ENDTAB
  0
TABLE
  2
VIEW
  5
73
330
0
100
AcDbSymbolTable
 70
     0
  0
ENDTAB
  0
TABLE
  2
UCS
  5
74
330
0
100
AcDbSymbolTable
 70
     0
  0
ENDTAB
  0
TABLE
  2
APPID
  5
75
330
0
100
AcDbSymbolTable
 70
     2
  0
APPID
  5
76
330
75
100
AcDbSymbolTableRecord
100
AcDbRegAppTableRecord
  2
ACAD
 70
     0
  0
APPID
  5
77
330
75
100
AcDbSymbolTableRecord
100
AcDbRegAppTableRecord
  2
ACADANNOTATIVE
 70
     0
  0
ENDTAB
  0
TABLE
  2
DIMSTYLE
  5
78
330
0
100
AcDbSymbolTable
 70
     2
  0
DIMSTYLE
105
79
330
78
100
AcDbSymbolTableRecord
100
AcDbDimStyleTableRecord
  2
STANDARD
 70
     0
  3

  4

  5

  6

  7

 40
0.0
 41
2.5
 42
0.625
 43
3.75
 44
1.25
 45
0.0
 46
0.0
 47
0.0
 48
0.0
140
2.5
141
2.5
142
0.0
143
0.03937007874016
144
1.0
145
0.0
146
1.0
147
0.625
 71
     0
 72
     0
 73
     0
 74
     0
 75
     0
 76
     0
 77
     1
 78
     8
170
     0
171
     3
172
     1
173
     0
174
     0
175
     0
176
     0
177
     0
178
     0
270
     2
271
     2
272
     2
273
     2
274
     3
340
71
275
     0
280
     0
281
     0
282
     0
283
     0
284
     8
285
     0
286
     0
287
     3
288
     0
  0
ENDTAB
  0
TABLE
  2
BLOCK_RECORD
  5
A01
330
0
100
AcDbSymbolTable
  70
5
  0
BLOCK_RECORD
  5
A02
330
A01
100
AcDbSymbolTableRecord
100
AcDbBlockTableRecord
  2
*MODEL_SPACE
  0
BLOCK_RECORD
  5
A03
330
A01
100
AcDbSymbolTableRecord
100
AcDbBlockTableRecord
  2
*PAPER_SPACE
  0
ENDTAB
  0
ENDSEC
  0
SECTION
  2
BLOCKS
  0
BLOCK
  5
A04
330
A02
100
AcDbEntity
  8
0
100
AcDbBlockBegin
  2
*MODEL_SPACE
 70
   0
 10
0
 20
0
 30
0
  3
*MODEL_SPACE
  1
 
  0
ENDBLK
  5
A05
330
A02
100
AcDbEntity
  8
0
100
AcDbBlockEnd
  0
BLOCK
  5
A06
330
A03
100
AcDbEntity
 67
1
  8
0
100
AcDbBlockBegin
  2
*PAPER_SPACE
 70
   0
 10
0
 20
0
 30
0
  3
*PAPER_SPACE
  1
 
  0
ENDBLK
  5
A07
330
A03
100
AcDbEntity
 67
    1
  8
0
100
AcDbBlockEnd
  0
ENDSEC
  0
SECTION
  2
ENTITIES
  0
LINE
  5
A08
330
A02
100
AcDbEntity
  8
Shape2DView001
100
AcDbLine
 10
-102.106854250
 20
706.543145751
 30
0.000000000
 11
-112.106854250
 21
706.543145751
 31
0.000000000
  0
LINE
  5
A09
330
A02
100
AcDbEntity
  8
Shape2DView001
100
AcDbLine
 10
-112.106854250
 20
706.543145751
 30
0.000000000
 11
-112.106854250
 21
711.543145751
 31
0.000000000
  0
LINE
  5
A0A
330
A02
100
AcDbEntity
  8
Shape2DView001
100
AcDbLine
 10
-112.106854250
 20
711.543145751
 30
0.000000000
 11
-107.106854250
 21
711.543145751
 31
0.000000000
  0
LINE
  5
A0B
330
A02
100
AcDbEntity
  8
Shape2DView001
100
AcDbLine
 10
-107.106854250
 20
711.543145751
 30
0.000000000
 11
-107.106854250
 21
721.543145751
 31
0.000000000
  0
LINE
  5
A0C
330
A02
100
AcDbEntity
  8
Shape2DView001
100
AcDbLine
 10
-107.106854250
 20
721.543145751
 30
0.000000000
 11
-122.106854250
 21
721.543145751
 31
0.000000000
  0
LINE
  5
A0D
330
A02
100
AcDbEntity
  8
Shape2DView001
100
AcDbLine
 10
-122.106854250
 20
721.543145751
 30
0.000000000
 11
-122.106854250
 21
711.543145751
 31
0.000000000
  0
LINE
  5
A0E
330
A02
100
AcDbEntity
  8
Shape2DView001
100
AcDbLine
 10
-122.106854250
 20
711.543145751
 30
0.000000000
 11
-117.106854250
 21
711.543145751
 31
0.000000000
  0
LINE
  5
A0F
330
A02
100
AcDbEntity
  8
Shape2DView001
100
AcDbLine
 10
-117.106854250
 20
711.543145751
 30
0.000000000
 11
-117.106854250
 21
706.543145751
 31
0.000000000
  0
LINE
  5
A10
330
A02
100
AcDbEntity
  8
Shape2DView001
100
AcDbLine
 10
-117.106854250
 20
706.543145751
 30
0.000000000
 11
-127.106854250
 21
706.543145751
 31
0.000000000
  0
LINE
  5
A11
330
A02
100
AcDbEntity
  8
Shape2DView001
100
AcDbLine
 10
-127.106854250
 20
706.543145751
 30
0.000000000
 11
-127.106854250
 21
726.543145751
 31
0.000000000
  0
LINE
  5
A12
330
A02
100
AcDbEntity
  8
Shape2DView001
100
AcDbLine
 10
-127.106854250
 20
726.543145751
 30
0.000000000
 11
-102.106854250
 21
726.543145751
 31
0.000000000
  0
LINE
  5
A13
330
A02
100
AcDbEntity
  8
Shape2DView001
100
AcDbLine
 10
-102.106854250
 20
726.543145751
 30
0.000000000
 11
-102.106854250
 21
724.043145751
 31
0.000000000
  0
LINE
  5
A14
330
A02
100
AcDbEntity
  8
Shape2DView001
100
AcDbLine
 10
-102.106854250
 20
724.043145751
 30
0.000000000
 11
-99.106854250
 21
724.043145751
 31
0.000000000
  0
LINE
  5
A15
330
A02
100
AcDbEntity
  8
Shape2DView001
100
AcDbLine
 10
-99.106854250
 20
719.043145751
 30
0.000000000
 11
-99.106854250
 21
724.043145751
 31
0.000000000
  0
LINE
  5
A16
330
A02
100
AcDbEntity
  8
Shape2DView001
100
AcDbLine
 10
-102.106854250
 20
719.043145751
 30
0.000000000
 11
-99.106854250
 21
719.043145751
 31
0.000000000
  0
LINE
  5
A17
330
A02
100
AcDbEntity
  8
Shape2DView001
100
AcDbLine
 10
-102.106854250
 20
719.043145751
 30
0.000000000
 11
-102.106854250
 21
714.043145751
 31
0.000000000
  0
LINE
  5
A18
330
A02
100
AcDbEntity
  8
Shape2DView001
100
AcDbLine
 10
-102.106854250
 20
714.043145751
 30
0.000000000
 11
-99.106854250
 21
714.043145751
 31
0.000000000
  0
LINE
  5
A19
330
A02
100
AcDbEntity
  8
Shape2DView001
100
AcDbLine
 10
-99.106854250
 20
714.043145751
 30
0.000000000
 11
-99.106854250
 21
709.043145751
 31
0.000000000
  0
LINE
  5
A1A
330
A02
100
AcDbEntity
  8
Shape2DView001
100
AcDbLine
 10
-99.106854250
 20
709.043145751
 30
0.000000000
 11
-102.106854250
 21
709.043145751
 31
0.000000000
  0
LINE
  5
A1B
330
A02
100
AcDbEntity
  8
Shape2DView001
100
AcDbLine
 10
-102.106854250
 20
706.543145751
 30
0.000000000
 11
-102.106854250
 21
709.043145751
 31
0.000000000
  0
LINE
  5
A1C
330
A02
100
AcDbEntity
  8
Shape2DView002
100
AcDbLine
 10
-100.556854250
 20
672.893145751
 30
0.000000000
 11
-110.556854250
 21
672.893145751
 31
0.000000000
  0
LINE
  5
A1D
330
A02
100
AcDbEntity
  8
Shape2DView002
100
AcDbLine
 10
-110.556854250
 20
672.893145751
 30
0.000000000
 11
-110.556854250
 21
677.893145751
 31
0.000000000
  0
LINE
  5
A1E
330
A02
100
AcDbEntity
  8
Shape2DView002
100
AcDbLine
 10
-110.556854250
 20
677.893145751
 30
0.000000000
 11
-105.556854250
 21
677.893145751
 31
0.000000000
  0
LINE
  5
A1F
330
A02
100
AcDbEntity
  8
Shape2DView002
100
AcDbLine
 10
-105.556854250
 20
677.893145751
 30
0.000000000
 11
-105.556854250
 21
687.893145751
 31
0.000000000
  0
LINE
  5
A20
330
A02
100
AcDbEntity
  8
Shape2DView002
100
AcDbLine
 10
-105.556854250
 20
687.893145751
 30
0.000000000
 11
-120.556854250
 21
687.893145751
 31
0.000000000
  0
LINE
  5
A21
330
A02
100
AcDbEntity
  8
Shape2DView002
100
AcDbLine
 10
-120.556854250
 20
687.893145751
 30
0.000000000
 11
-120.556854250
 21
677.893145751
 31
0.000000000
  0
LINE
  5
A22
330
A02
100
AcDbEntity
  8
Shape2DView002
100
AcDbLine
 10
-120.556854250
 20
677.893145751
 30
0.000000000
 11
-115.556854250
 21
677.893145751
 31
0.000000000
  0
LINE
  5
A23
330
A02
100
AcDbEntity
  8
Shape2DView002
100
AcDbLine
 10
-115.556854250
 20
677.893145751
 30
0.000000000
 11
-115.556854250
 21
672.893145751
 31
0.000000000
  0
LINE
  5
A24
330
A02
100
AcDbEntity
  8
Shape2DView002
100
AcDbLine
 10
-115.556854250
 20
672.893145751
 30
0.000000000
 11
-125.556854250
 21
672.893145751
 31
0.000000000
  0
LINE
  5
A25
330
A02
100
AcDbEntity
  8
Shape2DView002
100
AcDbLine
 10
-125.556854250
 20
672.893145751
 30
0.000000000
 11
-125.556854250
 21
692.893145751
 31
0.000000000
  0
LINE
  5
A26
330
A02
100
AcDbEntity
  8
Shape2DView002
100
AcDbLine
 10
-125.556854250
 20
692.893145751
 30
0.000000000
 11
-100.556854250
 21
692.893145751
 31
0.000000000
  0
LINE
  5
A27
330
A02
100
AcDbEntity
  8
Shape2DView002
100
AcDbLine
 10
-100.556854250
 20
692.893145751
 30
0.000000000
 11
-100.556854250
 21
690.393145751
 31
0.000000000
  0
LINE
  5
A28
330
A02
100
AcDbEntity
  8
Shape2DView002
100
AcDbLine
 10
-100.556854250
 20
690.393145751
 30
0.000000000
 11
-97.556854250
 21
690.393145751
 31
0.000000000
  0
LINE
  5
A29
330
A02
100
AcDbEntity
  8
Shape2DView002
100
AcDbLine
 10
-97.556854250
 20
685.393145751
 30
0.000000000
 11
-97.556854250
 21
690.393145751
 31
0.000000000
  0
LINE
  5
A2A
330
A02
100
AcDbEntity
  8
Shape2DView002
100
AcDbLine
 10
-100.556854250
 20
685.393145751
 30
0.000000000
 11
-97.556854250
 21
685.393145751
 31
0.000000000
  0
LINE
  5
A2B
330
A02
100
AcDbEntity
  8
Shape2DView002
100
AcDbLine
 10
-100.556854250
 20
685.393145751
 30
0.000000000
 11
-100.556854250
 21
680.393145751
 31
0.000000000
  0
LINE
  5
A2C
330
A02
100
AcDbEntity
  8
Shape2DView002
100
AcDbLine
 10
-100.556854250
 20
680.393145751
 30
0.000000000
 11
-97.556854250
 21
680.393145751
 31
0.000000000
  0
LINE
  5
A2D
330
A02
100
AcDbEntity
  8
Shape2DView002
100
AcDbLine
 10
-97.556854250
 20
680.393145751
 30
0.000000000
 11
-97.556854250
 21
675.393145751
 31
0.000000000
  0
LINE
  5
A2E
330
A02
100
AcDbEntity
  8
Shape2DView002
100
AcDbLine
 10
-97.556854250
 20
675.393145751
 30
0.000000000
 11
-100.556854250
 21
675.393145751
 31
0.000000000
  0
LINE
  5
A2F
330
A02
100
AcDbEntity
  8
Shape2DView002
100
AcDbLine
 10
-100.556854250
 20
672.893145751
 30
0.000000000
 11
-100.556854250
 21
675.393145751
 31
0.000000000
  0
LINE
  5
A30
330
A02
100
AcDbEntity
  8
Shape2DView003
100
AcDbLine
 10
-140.556854250
 20
671.493145751
 30
0.000000000
 11
-150.556854250
 21
671.493145751
 31
0.000000000
  0
LINE
  5
A31
330
A02
100
AcDbEntity
  8
Shape2DView003
100
AcDbLine
 10
-150.556854250
 20
671.493145751
 30
0.000000000
 11
-150.556854250
 21
676.493145751
 31
0.000000000
  0
LINE
  5
A32
330
A02
100
AcDbEntity
  8
Shape2DView003
100
AcDbLine
 10
-150.556854250
 20
676.493145751
 30
0.000000000
 11
-145.556854250
 21
676.493145751
 31
0.000000000
  0
LINE
  5
A33
330
A02
100
AcDbEntity
  8
Shape2DView003
100
AcDbLine
 10
-145.556854250
 20
676.493145751
 30
0.000000000
 11
-145.556854250
 21
686.493145751
 31
0.000000000
  0
LINE
  5
A34
330
A02
100
AcDbEntity
  8
Shape2DView003
100
AcDbLine
 10
-145.556854250
 20
686.493145751
 30
0.000000000
 11
-160.556854250
 21
686.493145751
 31
0.000000000
  0
LINE
  5
A35
330
A02
100
AcDbEntity
  8
Shape2DView003
100
AcDbLine
 10
-160.556854250
 20
686.493145751
 30
0.000000000
 11
-160.556854250
 21
676.493145751
 31
0.000000000
  0
LINE
  5
A36
330
A02
100
AcDbEntity
  8
Shape2DView003
100
AcDbLine
 10
-160.556854250
 20
676.493145751
 30
0.000000000
 11
-155.556854250
 21
676.493145751
 31
0.000000000
  0
LINE
  5
A37
330
A02
100
AcDbEntity
  8
Shape2DView003
100
AcDbLine
 10
-155.556854250
 20
676.493145751
 30
0.000000000
 11
-155.556854250
 21
671.493145751
 31
0.000000000
  0
LINE
  5
A38
330
A02
100
AcDbEntity
  8
Shape2DView003
100
AcDbLine
 10
-155.556854250
 20
671.493145751
 30
0.000000000
 11
-165.556854250
 21
671.493145751
 31
0.000000000
  0
LINE
  5
A39
330
A02
100
AcDbEntity
  8
Shape2DView003
100
AcDbLine
 10
-165.556854250
 20
671.493145751
 30
0.000000000
 11
-165.556854250
 21
691.493145751
 31
0.000000000
  0
LINE
  5
A3A
330
A02
100
AcDbEntity
  8
Shape2DView003
100
AcDbLine
 10
-165.556854250
 20
691.493145751
 30
0.000000000
 11
-140.556854250
 21
691.493145751
 31
0.000000000
  0
LINE
  5
A3B
330
A02
100
AcDbEntity
  8
Shape2DView003
100
AcDbLine
 10
-140.556854250
 20
691.493145751
 30
0.000000000
 11
-140.556854250
 21
688.993145751
 31
0.000000000
  0
LINE
  5
A3C
330
A02
100
AcDbEntity
  8
Shape2DView003
100
AcDbLine
 10
-140.556854250
 20
688.993145751
 30
0.000000000
 11
-137.556854250
 21
688.993145751
 31
0.000000000
  0
LINE
  5
A3D
330
A02
100
AcDbEntity
  8
Shape2DView003
100
AcDbLine
 10
-137.556854250
 20
683.993145751
 30
0.000000000
 11
-137.556854250
 21
688.993145751
 31
0.000000000
  0
LINE
  5
A3E
330
A02
100
AcDbEntity
  8
Shape2DView003
100
AcDbLine
 10
-140.556854250
 20
683.993145751
 30
0.000000000
 11
-137.556854250
 21
683.993145751
 31
0.000000000
  0
LINE
  5
A3F
330
A02
100
AcDbEntity
  8
Shape2DView003
100
AcDbLine
 10
-140.556854250
 20
683.993145751
 30
0.000000000
 11
-140.556854250
 21
678.993145751
 31
0.000000000
  0
LINE
  5
A40
330
A02
100
AcDbEntity
  8
Shape2DView003
100
AcDbLine
 10
-140.556854250
 20
678.993145751
 30
0.000000000
 11
-137.556854250
 21
678.993145751
 31
0.000000000
  0
LINE
  5
A41
330
A02
100
AcDbEntity
  8
Shape2DView003
100
AcDbLine
 10
-137.556854250
 20
678.993145751
 30
0.000000000
 11
-137.556854250
 21
673.993145751
 31
0.000000000
  0
LINE
  5
A42
330
A02
100
AcDbEntity
  8
Shape2DView003
100
AcDbLine
 10
-137.556854250
 20
673.993145751
 30
0.000000000
 11
-140.556854250
 21
673.993145751
 31
0.000000000
  0
LINE
  5
A43
330
A02
100
AcDbEntity
  8
Shape2DView003
100
AcDbLine
 10
-140.556854250
 20
671.493145751
 30
0.000000000
 11
-140.556854250
 21
673.993145751
 31
0.000000000
  0
LINE
  5
A44
330
A02
100
AcDbEntity
  8
Shape2DView004
100
AcDbLine
 10
-63.450000000
 20
725.900000000
 30
0.000000000
 11
-63.450000000
 21
715.900000000
 31
0.000000000
  0
LINE
  5
A45
330
A02
100
AcDbEntity
  8
Shape2DView004
100
AcDbLine
 10
-63.450000000
 20
715.900000000
 30
0.000000000
 11
6.550000000
 21
715.900000000
 31
0.000000000
  0
LINE
  5
A46
330
A02
100
AcDbEntity
  8
Shape2DView004
100
AcDbLine
 10
6.550000000
 20
715.900000000
 30
0.000000000
 11
6.550000000
 21
705.900000000
 31
0.000000000
  0
LINE
  5
A47
330
A02
100
AcDbEntity
  8
Shape2DView004
100
AcDbLine
 10
6.550000000
 20
705.900000000
 30
0.000000000
 11
66.550000000
 21
705.900000000
 31
0.000000000
  0
LINE
  5
A48
330
A02
100
AcDbEntity
  8
Shape2DView004
100
AcDbLine
 10
66.550000000
 20
705.900000000
 30
0.000000000
 11
66.550000000
 21
715.900000000
 31
0.000000000
  0
LINE
  5
A49
330
A02
100
AcDbEntity
  8
Shape2DView004
100
AcDbLine
 10
66.550000000
 20
715.900000000
 30
0.000000000
 11
136.550000000
 21
715.900000000
 31
0.000000000
  0
LINE
  5
A4A
330
A02
100
AcDbEntity
  8
Shape2DView004
100
AcDbLine
 10
136.550000000
 20
715.900000000
 30
0.000000000
 11
136.550000000
 21
725.900000000
 31
0.000000000
  0
LINE
  5
A4B
330
A02
100
AcDbEntity
  8
Shape2DView004
100
AcDbLine
 10
136.550000000
 20
725.900000000
 30
0.000000000
 11
-63.450000000
 21
725.900000000
 31
0.000000000
  0
CIRCLE
  5
A4C
330
A02
100
AcDbEntity
  8
Shape2DView004
100
AcDbCircle
 10
51.550000000
 20
710.900000000
 30
0.000000000
 40
1.500000000
  0
CIRCLE
  5
A4D
330
A02
100
AcDbEntity
  8
Shape2DView004
100
AcDbCircle
 10
21.550000000
 20
710.900000000
 30
0.000000000
 40
1.500000000
  0
LINE
  5
A4E
330
A02
100
AcDbEntity
  8
Shape2DView005
100
AcDbLine
 10
-63.900000000
 20
694.250000000
 30
0.000000000
 11
-63.900000000
 21
684.250000000
 31
0.000000000
  0
LINE
  5
A4F
330
A02
100
AcDbEntity
  8
Shape2DView005
100
AcDbLine
 10
-63.900000000
 20
684.250000000
 30
0.000000000
 11
6.100000000
 21
684.250000000
 31
0.000000000
  0
LINE
  5
A50
330
A02
100
AcDbEntity
  8
Shape2DView005
100
AcDbLine
 10
6.100000000
 20
684.250000000
 30
0.000000000
 11
6.100000000
 21
674.250000000
 31
0.000000000
  0
LINE
  5
A51
330
A02
100
AcDbEntity
  8
Shape2DView005
100
AcDbLine
 10
6.100000000
 20
674.250000000
 30
0.000000000
 11
66.100000000
 21
674.250000000
 31
0.000000000
  0
LINE
  5
A52
330
A02
100
AcDbEntity
  8
Shape2DView005
100
AcDbLine
 10
66.100000000
 20
674.250000000
 30
0.000000000
 11
66.100000000
 21
684.250000000
 31
0.000000000
  0
LINE
  5
A53
330
A02
100
AcDbEntity
  8
Shape2DView005
100
AcDbLine
 10
66.100000000
 20
684.250000000
 30
0.000000000
 11
136.100000000
 21
684.250000000
 31
0.000000000
  0
LINE
  5
A54
330
A02
100
AcDbEntity
  8
Shape2DView005
100
AcDbLine
 10
136.100000000
 20
684.250000000
 30
0.000000000
 11
136.100000000
 21
694.250000000
 31
0.000000000
  0
LINE
  5
A55
330
A02
100
AcDbEntity
  8
Shape2DView005
100
AcDbLine
 10
136.100000000
 20
694.250000000
 30
0.000000000
 11
-63.900000000
 21
694.250000000
 31
0.000000000
  0
CIRCLE
  5
A56
330
A02
100
AcDbEntity
  8
Shape2DView005
100
AcDbCircle
 10
51.100000000
 20
679.250000000
 30
0.000000000
 40
1.500000000
  0
CIRCLE
  5
A57
330
A02
100
AcDbEntity
  8
Shape2DView005
100
AcDbCircle
 10
21.100000000
 20
679.250000000
 30
0.000000000
 40
1.500000000
  0
LINE
  5
A58
330
A02
100
AcDbEntity
  8
Shape2DView
100
AcDbLine
 10
-225.000000000
 20
365.950000000
 30
0.000000000
 11
-225.000000000
 21
655.950000000
 31
0.000000000
  0
LINE
  5
A59
330
A02
100
AcDbEntity
  8
Shape2DView
100
AcDbLine
 10
-85.000000000
 20
425.950000000
 30
0.000000000
 11
85.000000000
 21
425.950000000
 31
0.000000000
  0
LINE
  5
A5A
330
A02
100
AcDbEntity
  8
Shape2DView
100
AcDbLine
 10
85.000000000
 20
425.950000000
 30
0.000000000
 11
85.000000000
 21
595.950000000
 31
0.000000000
  0
LINE
  5
A5B
330
A02
100
AcDbEntity
  8
Shape2DView
100
AcDbLine
 10
85.000000000
 20
595.950000000
 30
0.000000000
 11
-85.000000000
 21
595.950000000
 31
0.000000000
  0
LINE
  5
A5C
330
A02
100
AcDbEntity
  8
Shape2DView
100
AcDbLine
 10
-85.000000000
 20
595.950000000
 30
0.000000000
 11
-85.000000000
 21
425.950000000
 31
0.000000000
  0
LINE
  5
A5D
330
A02
100
AcDbEntity
  8
Shape2DView
100
AcDbLine
 10
127.000000000
 20
460.950000000
 30
0.000000000
 11
130.000000000
 21
460.950000000
 31
0.000000000
  0
LINE
  5
A5E
330
A02
100
AcDbEntity
  8
Shape2DView
100
AcDbLine
 10
130.000000000
 20
460.950000000
 30
0.000000000
 11
130.000000000
 21
560.950000000
 31
0.000000000
  0
LINE
  5
A5F
330
A02
100
AcDbEntity
  8
Shape2DView
100
AcDbLine
 10
130.000000000
 20
560.950000000
 30
0.000000000
 11
127.000000000
 21
560.950000000
 31
0.000000000
  0
LINE
  5
A60
330
A02
100
AcDbEntity
  8
Shape2DView
100
AcDbLine
 10
127.000000000
 20
560.950000000
 30
0.000000000
 11
127.000000000
 21
460.950000000
 31
0.000000000
  0
LINE
  5
A61
330
A02
100
AcDbEntity
  8
Shape2DView
100
AcDbLine
 10
-133.044285487
 20
460.950000000
 30
0.000000000
 11
-130.044285487
 21
460.950000000
 31
0.000000000
  0
LINE
  5
A62
330
A02
100
AcDbEntity
  8
Shape2DView
100
AcDbLine
 10
-130.044285487
 20
460.950000000
 30
0.000000000
 11
-130.044285487
 21
560.950000000
 31
0.000000000
  0
LINE
  5
A63
330
A02
100
AcDbEntity
  8
Shape2DView
100
AcDbLine
 10
-130.044285487
 20
560.950000000
 30
0.000000000
 11
-133.044285487
 21
560.950000000
 31
0.000000000
  0
LINE
  5
A64
330
A02
100
AcDbEntity
  8
Shape2DView
100
AcDbLine
 10
-133.044285487
 20
560.950000000
 30
0.000000000
 11
-133.044285487
 21
460.950000000
 31
0.000000000
  0
CIRCLE
  5
A65
330
A02
100
AcDbEntity
  8
Shape2DView
100
AcDbCircle
 10
-178.044285487
 20
627.450000000
 30
0.000000000
 40
10.000000000
  0
LINE
  5
A66
330
A02
100
AcDbEntity
  8
Shape2DView
100
AcDbLine
 10
-84.143439876
 20
419.735494938
 30
0.000000000
 11
-82.022108788
 21
421.856823947
 31
0.000000000
  0
LINE
  5
A67
330
A02
100
AcDbEntity
  8
Shape2DView
100
AcDbLine
 10
-74.951044442
 20
414.785752669
 30
0.000000000
 11
-82.022108788
 21
421.856823947
 31
0.000000000
  0
LINE
  5
A68
330
A02
100
AcDbEntity
  8
Shape2DView
100
AcDbLine
 10
-77.072375531
 20
412.664423660
 30
0.000000000
 11
-74.951044442
 21
414.785752669
 31
0.000000000
  0
LINE
  5
A69
330
A02
100
AcDbEntity
  8
Shape2DView
100
AcDbLine
 10
-84.143439876
 20
419.735494938
 30
0.000000000
 11
-77.072375531
 21
412.664423660
 31
0.000000000
  0
LINE
  5
A6A
330
A02
100
AcDbEntity
  8
Shape2DView
100
AcDbLine
 10
-61.869575865
 20
397.461628962
 30
0.000000000
 11
-68.940644832
 21
404.532695619
 31
0.000000000
  0
LINE
  5
A6B
330
A02
100
AcDbEntity
  8
Shape2DView
100
AcDbLine
 10
-68.940644832
 20
404.532695619
 30
0.000000000
 11
-66.819320444
 21
406.654020699
 31
0.000000000
  0
LINE
  5
A6C
330
A02
100
AcDbEntity
  8
Shape2DView
100
AcDbLine
 10
-59.748256099
 20
399.582949421
 30
0.000000000
 11
-66.819320444
 21
406.654020699
 31
0.000000000
  0
LINE
  5
A6D
330
A02
100
AcDbEntity
  8
Shape2DView
100
AcDbLine
 10
-61.869575865
 20
397.461628962
 30
0.000000000
 11
-59.748256099
 21
399.582949421
 31
0.000000000
  0
LINE
  5
A6E
330
A02
100
AcDbEntity
  8
Shape2DView
100
AcDbLine
 10
61.869577118
 20
624.438370247
 30
0.000000000
 11
68.940641463
 21
617.367298969
 31
0.000000000
  0
LINE
  5
A6F
330
A02
100
AcDbEntity
  8
Shape2DView
100
AcDbLine
 10
66.819320080
 20
615.245979665
 30
0.000000000
 11
68.940641463
 21
617.367298969
 31
0.000000000
  0
LINE
  5
A70
330
A02
100
AcDbEntity
  8
Shape2DView
100
AcDbLine
 10
66.819320080
 20
615.245979665
 30
0.000000000
 11
59.748255734
 21
622.317050943
 31
0.000000000
  0
LINE
  5
A71
330
A02
100
AcDbEntity
  8
Shape2DView
100
AcDbLine
 10
59.748255734
 20
622.317050943
 30
0.000000000
 11
61.869577118
 21
624.438370247
 31
0.000000000
  0
LINE
  5
A72
330
A02
100
AcDbEntity
  8
Shape2DView
100
AcDbLine
 10
82.022107037
 20
600.043177804
 30
0.000000000
 11
84.143428420
 21
602.164497107
 31
0.000000000
  0
LINE
  5
A73
330
A02
100
AcDbEntity
  8
Shape2DView
100
AcDbLine
 10
84.143428420
 20
602.164497107
 30
0.000000000
 11
77.072364074
 21
609.235568385
 31
0.000000000
  0
LINE
  5
A74
330
A02
100
AcDbEntity
  8
Shape2DView
100
AcDbLine
 10
77.072364074
 20
609.235568385
 30
0.000000000
 11
74.951042691
 21
607.114249082
 31
0.000000000
  0
LINE
  5
A75
330
A02
100
AcDbEntity
  8
Shape2DView
100
AcDbLine
 10
74.951042691
 20
607.114249082
 30
0.000000000
 11
82.022107037
 21
600.043177804
 31
0.000000000
  0
LINE
  5
A76
330
A02
100
AcDbEntity
  8
Shape2DView
100
AcDbLine
 10
-113.488377806
 20
572.819586428
 30
0.000000000
 11
-111.367059195
 21
570.698264351
 31
0.000000000
  0
LINE
  5
A77
330
A02
100
AcDbEntity
  8
Shape2DView
100
AcDbLine
 10
-111.367059195
 20
570.698264351
 30
0.000000000
 11
-104.295985606
 21
577.769326386
 31
0.000000000
  0
LINE
  5
A78
330
A02
100
AcDbEntity
  8
Shape2DView
100
AcDbLine
 10
-104.295985606
 20
577.769326386
 30
0.000000000
 11
-106.417304217
 21
579.890648462
 31
0.000000000
  0
LINE
  5
A79
330
A02
100
AcDbEntity
  8
Shape2DView
100
AcDbLine
 10
-113.488377806
 20
572.819586428
 30
0.000000000
 11
-106.417304217
 21
579.890648462
 31
0.000000000
  0
LINE
  5
A7A
330
A02
100
AcDbEntity
  8
Shape2DView
100
AcDbLine
 10
-89.093178777
 20
592.972108374
 30
0.000000000
 11
-91.214497387
 21
595.093430451
 31
0.000000000
  0
LINE
  5
A7B
330
A02
100
AcDbEntity
  8
Shape2DView
100
AcDbLine
 10
-98.285570976
 20
588.022368416
 30
0.000000000
 11
-91.214497387
 21
595.093430451
 31
0.000000000
  0
LINE
  5
A7C
330
A02
100
AcDbEntity
  8
Shape2DView
100
AcDbLine
 10
-98.285570976
 20
588.022368416
 30
0.000000000
 11
-96.164252366
 21
585.901046339
 31
0.000000000
  0
LINE
  5
A7D
330
A02
100
AcDbEntity
  8
Shape2DView
100
AcDbLine
 10
-96.164252366
 20
585.901046339
 30
0.000000000
 11
-89.093178777
 21
592.972108374
 31
0.000000000
  0
LINE
  5
A7E
330
A02
100
AcDbEntity
  8
Shape2DView
100
AcDbLine
 10
113.488356237
 20
449.080439799
 30
0.000000000
 11
111.367035662
 21
451.201759911
 31
0.000000000
  0
LINE
  5
A7F
330
A02
100
AcDbEntity
  8
Shape2DView
100
AcDbLine
 10
111.367035662
 20
451.201759911
 30
0.000000000
 11
104.295968621
 21
444.130691329
 31
0.000000000
  0
LINE
  5
A80
330
A02
100
AcDbEntity
  8
Shape2DView
100
AcDbLine
 10
104.295968621
 20
444.130691329
 30
0.000000000
 11
106.417287366
 21
442.009373046
 31
0.000000000
  0
LINE
  5
A81
330
A02
100
AcDbEntity
  8
Shape2DView
100
AcDbLine
 10
106.417287366
 20
442.009373046
 30
0.000000000
 11
113.488356237
 21
449.080439799
 31
0.000000000
  0
LINE
  5
A82
330
A02
100
AcDbEntity
  8
Shape2DView
100
AcDbLine
 10
89.093175290
 20
428.927894686
 30
0.000000000
 11
91.214494517
 21
426.806575922
 31
0.000000000
  0
LINE
  5
A83
330
A02
100
AcDbEntity
  8
Shape2DView
100
AcDbLine
 10
91.214494517
 20
426.806575922
 30
0.000000000
 11
98.285558862
 21
433.877647200
 31
0.000000000
  0
LINE
  5
A84
330
A02
100
AcDbEntity
  8
Shape2DView
100
AcDbLine
 10
98.285558862
 20
433.877647200
 30
0.000000000
 11
96.164242332
 21
435.998963268
 31
0.000000000
  0
LINE
  5
A85
330
A02
100
AcDbEntity
  8
Shape2DView
100
AcDbLine
 10
96.164242332
 20
435.998963268
 30
0.000000000
 11
89.093175290
 21
428.927894686
 31
0.000000000
  0
LINE
  5
A86
330
A02
100
AcDbEntity
  8
Shape2DView
100
AcDbLine
 10
1.500000000
 20
608.450000000
 30
0.000000000
 11
1.500000000
 21
613.450000000
 31
0.000000000
  0
LINE
  5
A87
330
A02
100
AcDbEntity
  8
Shape2DView
100
AcDbLine
 10
1.500000000
 20
613.450000000
 30
0.000000000
 11
-1.500000000
 21
613.450000000
 31
0.000000000
  0
LINE
  5
A88
330
A02
100
AcDbEntity
  8
Shape2DView
100
AcDbLine
 10
-1.500000000
 20
613.450000000
 30
0.000000000
 11
-1.500000000
 21
608.450000000
 31
0.000000000
  0
LINE
  5
A89
330
A02
100
AcDbEntity
  8
Shape2DView
100
AcDbLine
 10
-1.500000000
 20
608.450000000
 30
0.000000000
 11
1.500000000
 21
608.450000000
 31
0.000000000
  0
LINE
  5
A8A
330
A02
100
AcDbEntity
  8
Shape2DView
100
AcDbLine
 10
-1.500000000
 20
618.450000000
 30
0.000000000
 11
1.500000000
 21
618.450000000
 31
0.000000000
  0
LINE
  5
A8B
330
A02
100
AcDbEntity
  8
Shape2DView
100
AcDbLine
 10
1.500000000
 20
618.450000000
 30
0.000000000
 11
1.500000000
 21
623.450000000
 31
0.000000000
  0
LINE
  5
A8C
330
A02
100
AcDbEntity
  8
Shape2DView
100
AcDbLine
 10
1.500000000
 20
623.450000000
 30
0.000000000
 11
-1.500000000
 21
623.450000000
 31
0.000000000
  0
LINE
  5
A8D
330
A02
100
AcDbEntity
  8
Shape2DView
100
AcDbLine
 10
-1.500000000
 20
623.450000000
 30
0.000000000
 11
-1.500000000
 21
618.450000000
 31
0.000000000
  0
LINE
  5
A8E
330
A02
100
AcDbEntity
  8
Shape2DView
100
AcDbLine
 10
1.500000000
 20
398.450000000
 30
0.000000000
 11
1.500000000
 21
403.450000000
 31
0.000000000
  0
LINE
  5
A8F
330
A02
100
AcDbEntity
  8
Shape2DView
100
AcDbLine
 10
1.500000000
 20
403.450000000
 30
0.000000000
 11
-1.500000000
 21
403.450000000
 31
0.000000000
  0
LINE
  5
A90
330
A02
100
AcDbEntity
  8
Shape2DView
100
AcDbLine
 10
-1.500000000
 20
403.450000000
 30
0.000000000
 11
-1.500000000
 21
398.450000000
 31
0.000000000
  0
LINE
  5
A91
330
A02
100
AcDbEntity
  8
Shape2DView
100
AcDbLine
 10
-1.500000000
 20
398.450000000
 30
0.000000000
 11
1.500000000
 21
398.450000000
 31
0.000000000
  0
LINE
  5
A92
330
A02
100
AcDbEntity
  8
Shape2DView
100
AcDbLine
 10
-1.500000000
 20
408.450000000
 30
0.000000000
 11
1.500000000
 21
408.450000000
 31
0.000000000
  0
LINE
  5
A93
330
A02
100
AcDbEntity
  8
Shape2DView
100
AcDbLine
 10
1.500000000
 20
408.450000000
 30
0.000000000
 11
1.500000000
 21
413.450000000
 31
0.000000000
  0
LINE
  5
A94
330
A02
100
AcDbEntity
  8
Shape2DView
100
AcDbLine
 10
1.500000000
 20
413.450000000
 30
0.000000000
 11
-1.500000000
 21
413.450000000
 31
0.000000000
  0
LINE
  5
A95
330
A02
100
AcDbEntity
  8
Shape2DView
100
AcDbLine
 10
-1.500000000
 20
413.450000000
 30
0.000000000
 11
-1.500000000
 21
408.450000000
 31
0.000000000
  0
LINE
  5
A96
330
A02
100
AcDbEntity
  8
Shape2DView
100
AcDbLine
 10
97.500000000
 20
509.450000000
 30
0.000000000
 11
102.500000000
 21
509.450000000
 31
0.000000000
  0
LINE
  5
A97
330
A02
100
AcDbEntity
  8
Shape2DView
100
AcDbLine
 10
102.500000000
 20
509.450000000
 30
0.000000000
 11
102.500000000
 21
512.450000000
 31
0.000000000
  0
LINE
  5
A98
330
A02
100
AcDbEntity
  8
Shape2DView
100
AcDbLine
 10
102.500000000
 20
512.450000000
 30
0.000000000
 11
97.500000000
 21
512.450000000
 31
0.000000000
  0
LINE
  5
A99
330
A02
100
AcDbEntity
  8
Shape2DView
100
AcDbLine
 10
107.500000000
 20
509.449998366
 30
0.000000000
 11
112.500000000
 21
509.449998366
 31
0.000000000
  0
LINE
  5
A9A
330
A02
100
AcDbEntity
  8
Shape2DView
100
AcDbLine
 10
112.500000000
 20
509.449998366
 30
0.000000000
 11
112.500000000
 21
512.449998366
 31
0.000000000
  0
LINE
  5
A9B
330
A02
100
AcDbEntity
  8
Shape2DView
100
AcDbLine
 10
112.500000000
 20
512.449998366
 30
0.000000000
 11
107.500000000
 21
512.449998366
 31
0.000000000
  0
LINE
  5
A9C
330
A02
100
AcDbEntity
  8
Shape2DView
100
AcDbLine
 10
107.500000000
 20
512.449998366
 30
0.000000000
 11
107.500000000
 21
509.449998366
 31
0.000000000
  0
CIRCLE
  5
A9D
330
A02
100
AcDbEntity
  8
Shape2DView
100
AcDbCircle
 10
-87.500000000
 20
648.450000000
 30
0.000000000
 40
2.000000000
  0
CIRCLE
  5
A9E
330
A02
100
AcDbEntity
  8
Shape2DView
100
AcDbCircle
 10
87.500000000
 20
648.450000000
 30
0.000000000
 40
2.000000000
  0
CIRCLE
  5
A9F
330
A02
100
AcDbEntity
  8
Shape2DView
100
AcDbCircle
 10
87.500000000
 20
373.450000000
 30
0.000000000
 40
2.000000000
  0
CIRCLE
  5
AA0
330
A02
100
AcDbEntity
  8
Shape2DView
100
AcDbCircle
 10
-87.500000000
 20
373.450000000
 30
0.000000000
 40
2.000000000
  0
CIRCLE
  5
AA1
330
A02
100
AcDbEntity
  8
Shape2DView
100
AcDbCircle
 10
-212.044285487
 20
604.450000000
 30
0.000000000
 40
1.500000000
  0
CIRCLE
  5
AA2
330
A02
100
AcDbEntity
  8
Shape2DView
100
AcDbCircle
 10
-144.044285487
 20
501.450000000
 30
0.000000000
 40
1.500000000
  0
CIRCLE
  5
AA3
330
A02
100
AcDbEntity
  8
Shape2DView
100
AcDbCircle
 10
-213.794285487
 20
467.450000000
 30
0.000000000
 40
1.500000000
  0
CIRCLE
  5
AA4
330
A02
100
AcDbEntity
  8
Shape2DView
100
AcDbCircle
 10
-142.294285487
 20
467.450000000
 30
0.000000000
 40
1.500000000
  0
CIRCLE
  5
AA5
330
A02
100
AcDbEntity
  8
Shape2DView
100
AcDbCircle
 10
-142.294285487
 20
375.950000000
 30
0.000000000
 40
1.500000000
  0
CIRCLE
  5
AA6
330
A02
100
AcDbEntity
  8
Shape2DView
100
AcDbCircle
 10
-213.794285487
 20
375.950000000
 30
0.000000000
 40
1.500000000
  0
CIRCLE
  5
AA7
330
A02
100
AcDbEntity
  8
Shape2DView
100
AcDbCircle
 10
75.649095658
 20
635.389452538
 30
0.000000000
 40
1.500000000
  0
CIRCLE
  5
AA8
330
A02
100
AcDbEntity
  8
Shape2DView
100
AcDbCircle
 10
88.377010556
 20
622.661541799
 30
0.000000000
 40
1.500000000
  0
CIRCLE
  5
AA9
330
A02
100
AcDbEntity
  8
Shape2DView
100
AcDbCircle
 10
111.622973289
 20
422.661570364
 30
0.000000000
 40
1.500000000
  0
CIRCLE
  5
AAA
330
A02
100
AcDbEntity
  8
Shape2DView
100
AcDbCircle
 10
124.350889111
 20
435.389498665
 30
0.000000000
 40
1.500000000
  0
CIRCLE
  5
AAB
330
A02
100
AcDbEntity
  8
Shape2DView
100
AcDbCircle
 10
-88.377030591
 20
399.238462927
 30
0.000000000
 40
1.500000000
  0
CIRCLE
  5
AAC
330
A02
100
AcDbEntity
  8
Shape2DView
100
AcDbCircle
 10
-75.649105526
 20
386.510525383
 30
0.000000000
 40
1.500000000
  0
CIRCLE
  5
AAD
330
A02
100
AcDbEntity
  8
Shape2DView
100
AcDbCircle
 10
-124.350936196
 20
586.510557301
 30
0.000000000
 40
1.500000000
  0
CIRCLE
  5
AAE
330
A02
100
AcDbEntity
  8
Shape2DView
100
AcDbCircle
 10
-111.622994493
 20
599.238478207
 30
0.000000000
 40
1.500000000
  0
LINE
  5
AAF
330
A02
100
AcDbEntity
  8
Shape2DView
100
AcDbLine
 10
140.000000000
 20
365.950000000
 30
0.000000000
 11
-225.000000000
 21
365.950000000
 31
0.000000000
  0
LINE
  5
AB0
330
A02
100
AcDbEntity
  8
Shape2DView
100
AcDbLine
 10
-225.000000000
 20
655.950000000
 30
0.000000000
 11
140.000000000
 21
655.950000000
 31
0.000000000
  0
LINE
  5
AB1
330
A02
100
AcDbEntity
  8
Shape2DView
100
AcDbLine
 10
140.000000000
 20
655.950000000
 30
0.000000000
 11
140.000000000
 21
365.950000000
 31
0.000000000
  0
LINE
  5
AB2
330
A02
100
AcDbEntity
  8
Shape2DView
100
AcDbLine
 10
97.500000000
 20
509.450000000
 30
0.000000000
 11
97.500000000
 21
512.450000000
 31
0.000000000
  0
ENDSEC
  0
SECTION
  2
OBJECTS
  0
DICTIONARY
  5
F000
330
0
100
AcDbDictionary
  3
ACAD_GROUP
350
F001
  0
DICTIONARY
  5
F001
330
F000
100
AcDbDictionary
  0
ENDSEC
  0
EOF