999
FreeCAD v1.0 39319 (Git)
  0
SECTION
  2
HEADER
  9
$ACADVER
  1
AC1014
  9
$ACADMAINTVER
 70
     9
  9
$DWGCODEPAGE
  3
ANSI_1252
  9
$TEXTSTYLE
  7
STANDARD
  9
$DIMSTYLE
  2
STANDARD
  9
$DIMTXSTY
  7
STANDARD
  9
$CMLSTYLE
  2
STANDARD
  9
$LUNITS
 70
2
  9
$INSUNITS
 70
4
  9
$PEXTMAX
 10
50
 20
50
 30
50
  9
$PEXTMIN
 10
0
 20
0
 30
0
  9
$HANDSEED
  5
FFFF
  0
ENDSEC
  0
SECTION
  2
CLASSES
  0
CLASS
  1
ACDBDICTIONARYWDFLT
  2
AcDbDictionaryWithDefault
  3
ObjectDBX Classes
 90
        0
280
     0
281
     0
  0
CLASS
  1
XRECORD
  2
AcDbXrecord
  3
ObjectDBX Classes
 90
        0
280
     0
281
     0
  0
CLASS
  1
LWPOLYLINE
  2
AcDbPolyline
  3
ObjectDBX Classes
 90
        0
280
     0
281
     1
  0
ENDSEC
  0
SECTION
  2
TABLES
  0
TABLE
  2
VPORT
  5
20
330
0
100
AcDbSymbolTable
 70
     1
  0
VPORT
  5
21
330
20
100
AcDbSymbolTableRecord
100
AcDbViewportTableRecord
  2
*ACTIVE
 70
     0
  0
ENDTAB
  0
TABLE
  2
LTYPE
  5
22
330
0
100
AcDbSymbolTable
 70
     1
  0
LTYPE
  5
23
330
21
100
AcDbSymbolTableRecord
100
AcDbLinetypeTableRecord
  2
BYBLOCK
 70
     0
  3

 72
    65
 73
     0
 40
0.0
  0
LTYPE
  5
24
330
21
100
AcDbSymbolTableRecord
100
AcDbLinetypeTableRecord
  2
BYLAYER
 70
     0
  3

 72
    65
 73
     0
 40
0.0
  0
LTYPE
  5
25
330
21
100
AcDbSymbolTableRecord
100
AcDbLinetypeTableRecord
  2
CONTINUOUS
 70
     0
  3
Solid line
 72
    65
 73
     0
 40
0.0
  0
ENDTAB
  0
TABLE
  2
LAYER
  5
A2D
330
0
100
AcDbSymbolTable
 70
6
  0
LAYER
  5
A2E
330
A2D
100
AcDbSymbolTableRecord
100
AcDbLayerTableRecord
  2
0
 70
   0
 62
   7
  6
CONTINUOUS
  0
LAYER
  5
A2F
330
A2D
100
AcDbSymbolTableRecord
100
AcDbLayerTableRecord
  2
none
 70
    0
 62
    7
  6
CONTINUOUS
  0
LAYER
  5
A30
330
A2D
100
AcDbSymbolTableRecord
100
AcDbLayerTableRecord
  2
Unfold_Sketch004
 70
    0
 62
    7
  6
CONTINUOUS
  0
LAYER
  5
A31
330
A2D
100
AcDbSymbolTableRecord
100
AcDbLayerTableRecord
  2
Unfold_Sketch_Bends004
 70
    0
 62
    7
  6
CONTINUOUS
  0
LAYER
  5
A32
330
A2D
100
AcDbSymbolTableRecord
100
AcDbLayerTableRecord
  2
Unfold_Sketch_Internal002
 70
    0
 62
    7
  6
CONTINUOUS
  0
LAYER
  5
A33
330
A2D
100
AcDbSymbolTableRecord
100
AcDbLayerTableRecord
  2
Unfold_Sketch_Holes003
 70
    0
 62
    7
  6
CONTINUOUS
  0
ENDTAB
  0
TABLE
  2
STYLE
  5
70
330
0
100
AcDbSymbolTable
 70
     2
  0
STYLE
  5
71
330
70
100
AcDbSymbolTableRecord
100
AcDbTextStyleTableRecord
  2
STANDARD
 70
     0
 40
0.0
 41
1.0
 50
0.0
 71
     0
 42
2.5
  3
arial.ttf
  4

  0
STYLE
  5
72
330
70
100
AcDbSymbolTableRecord
100
AcDbTextStyleTableRecord
  2
ANNOTATIVE
 70
     0
 40
0.0
 41
1.0
 50
0.0
 71
     0
 42
2.5
  3
arial.ttf
  4

  0
ENDTAB
  0
TABLE
  2
VIEW
  5
73
330
0
100
AcDbSymbolTable
 70
     0
  0
ENDTAB
  0
TABLE
  2
UCS
  5
74
330
0
100
AcDbSymbolTable
 70
     0
  0
ENDTAB
  0
TABLE
  2
APPID
  5
75
330
0
100
AcDbSymbolTable
 70
     2
  0
APPID
  5
76
330
75
100
AcDbSymbolTableRecord
100
AcDbRegAppTableRecord
  2
ACAD
 70
     0
  0
APPID
  5
77
330
75
100
AcDbSymbolTableRecord
100
AcDbRegAppTableRecord
  2
ACADANNOTATIVE
 70
     0
  0
ENDTAB
  0
TABLE
  2
DIMSTYLE
  5
78
330
0
100
AcDbSymbolTable
 70
     2
  0
DIMSTYLE
105
79
330
78
100
AcDbSymbolTableRecord
100
AcDbDimStyleTableRecord
  2
STANDARD
 70
     0
  3

  4

  5

  6

  7

 40
0.0
 41
2.5
 42
0.625
 43
3.75
 44
1.25
 45
0.0
 46
0.0
 47
0.0
 48
0.0
140
2.5
141
2.5
142
0.0
143
0.03937007874016
144
1.0
145
0.0
146
1.0
147
0.625
 71
     0
 72
     0
 73
     0
 74
     0
 75
     0
 76
     0
 77
     1
 78
     8
170
     0
171
     3
172
     1
173
     0
174
     0
175
     0
176
     0
177
     0
178
     0
270
     2
271
     2
272
     2
273
     2
274
     3
340
71
275
     0
280
     0
281
     0
282
     0
283
     0
284
     8
285
     0
286
     0
287
     3
288
     0
  0
ENDTAB
  0
TABLE
  2
BLOCK_RECORD
  5
A01
330
0
100
AcDbSymbolTable
  70
5
  0
BLOCK_RECORD
  5
A02
330
A01
100
AcDbSymbolTableRecord
100
AcDbBlockTableRecord
  2
*MODEL_SPACE
  0
BLOCK_RECORD
  5
A03
330
A01
100
AcDbSymbolTableRecord
100
AcDbBlockTableRecord
  2
*PAPER_SPACE
  0
ENDTAB
  0
ENDSEC
  0
SECTION
  2
BLOCKS
  0
BLOCK
  5
A04
330
A02
100
AcDbEntity
  8
0
100
AcDbBlockBegin
  2
*MODEL_SPACE
 70
   0
 10
0
 20
0
 30
0
  3
*MODEL_SPACE
  1
 
  0
ENDBLK
  5
A05
330
A02
100
AcDbEntity
  8
0
100
AcDbBlockEnd
  0
BLOCK
  5
A06
330
A03
100
AcDbEntity
 67
1
  8
0
100
AcDbBlockBegin
  2
*PAPER_SPACE
 70
   0
 10
0
 20
0
 30
0
  3
*PAPER_SPACE
  1
 
  0
ENDBLK
  5
A07
330
A03
100
AcDbEntity
 67
    1
  8
0
100
AcDbBlockEnd
  0
ENDSEC
  0
SECTION
  2
ENTITIES
  0
LINE
  5
A08
330
A02
100
AcDbEntity
  8
Unfold_Sketch004
100
AcDbLine
 10
190.128551267
 20
99.120277321
 30
0.000000000
 11
203.235750844
 21
82.712921677
 31
0.000000000
  0
ARC
  5
A09
330
A02
100
AcDbEntity
  8
Unfold_Sketch004
100
AcDbCircle
 10
204.484055565
 20
81.150316377
 30
0.000000000
 40
2.000000000
100
AcDbArc
 50
128.620000000
 51
-51.380000000
  0
LINE
  5
A0A
330
A02
100
AcDbEntity
  8
Unfold_Sketch004
100
AcDbLine
 10
205.732360287
 20
79.587711078
 30
0.000000000
 11
261.177429828
 21
123.880625046
 31
0.000000000
  0
LINE
  5
A0B
330
A02
100
AcDbEntity
  8
Unfold_Sketch004
100
AcDbLine
 10
261.177429828
 20
123.880625046
 30
0.000000000
 11
334.177429828
 21
123.880625046
 31
0.000000000
  0
LINE
  5
A0C
330
A02
100
AcDbEntity
  8
Unfold_Sketch004
100
AcDbLine
 10
334.177429828
 20
123.880625046
 30
0.000000000
 11
183.842661450
 21
312.066972258
 31
0.000000000
  0
LINE
  5
A0D
330
A02
100
AcDbEntity
  8
Unfold_Sketch004
100
AcDbLine
 10
183.842661450
 20
312.066972258
 30
0.000000000
 11
163.693276230
 21
263.589655121
 31
0.000000000
  0
LINE
  5
A0E
330
A02
100
AcDbEntity
  8
Unfold_Sketch004
100
AcDbLine
 10
163.693276230
 20
263.589655121
 30
0.000000000
 11
41.028760219
 21
165.597734475
 31
0.000000000
  0
LINE
  5
A0F
330
A02
100
AcDbEntity
  8
Unfold_Sketch004
100
AcDbLine
 10
41.028760219
 20
165.597734475
 30
0.000000000
 11
39.065132487
 21
164.029068497
 31
0.000000000
  0
LINE
  5
A10
330
A02
100
AcDbEntity
  8
Unfold_Sketch004
100
AcDbLine
 10
39.065132487
 20
164.029068497
 30
0.000000000
 11
0.000000000
 21
132.821450457
 31
0.000000000
  0
LINE
  5
A11
330
A02
100
AcDbEntity
  8
Unfold_Sketch004
100
AcDbLine
 10
0.000000000
 20
132.821450457
 30
0.000000000
 11
106.105901337
 21
0.000000000
 31
0.000000000
  0
LINE
  5
A12
330
A02
100
AcDbEntity
  8
Unfold_Sketch004
100
AcDbLine
 10
106.105901337
 20
0.000000000
 30
0.000000000
 11
145.171033824
 21
31.207618040
 31
0.000000000
  0
LINE
  5
A13
330
A02
100
AcDbEntity
  8
Unfold_Sketch004
100
AcDbLine
 10
145.171033824
 20
31.207618040
 30
0.000000000
 11
147.134661556
 21
32.776284017
 31
0.000000000
  0
LINE
  5
A14
330
A02
100
AcDbEntity
  8
Unfold_Sketch004
100
AcDbLine
 10
147.134661556
 20
32.776284017
 30
0.000000000
 11
178.386767546
 21
57.742378449
 31
0.000000000
  0
ARC
  5
A15
330
A02
100
AcDbEntity
  8
Unfold_Sketch004
100
AcDbCircle
 10
177.138462824
 20
59.304983749
 30
0.000000000
 40
2.000000000
100
AcDbArc
 50
-51.380000000
 51
128.620000000
  0
LINE
  5
A16
330
A02
100
AcDbEntity
  8
Unfold_Sketch004
100
AcDbLine
 10
175.890158102
 20
60.867589048
 30
0.000000000
 11
162.782958526
 21
77.274944693
 31
0.000000000
  0
ARC
  5
A17
330
A02
100
AcDbEntity
  8
Unfold_Sketch004
100
AcDbCircle
 10
166.689471774
 20
80.395706497
 30
0.000000000
 40
5.000000000
100
AcDbArc
 50
38.620000000
 51
-141.380000000
  0
LINE
  5
A18
330
A02
100
AcDbEntity
  8
Unfold_Sketch004
100
AcDbLine
 10
170.595985023
 20
83.516468301
 30
0.000000000
 11
186.199794043
 21
63.983902057
 31
0.000000000
  0
LINE
  5
A19
330
A02
100
AcDbEntity
  8
Unfold_Sketch004
100
AcDbLine
 10
186.199794043
 20
63.983902057
 30
0.000000000
 11
197.919333789
 21
73.346187470
 31
0.000000000
  0
LINE
  5
A1A
330
A02
100
AcDbEntity
  8
Unfold_Sketch004
100
AcDbLine
 10
197.919333789
 20
73.346187470
 30
0.000000000
 11
182.315524769
 21
92.878753713
 31
0.000000000
  0
ARC
  5
A1B
330
A02
100
AcDbEntity
  8
Unfold_Sketch004
100
AcDbCircle
 10
186.222038018
 20
95.999515517
 30
0.000000000
 40
5.000000000
100
AcDbArc
 50
38.620000000
 51
-141.380000000
  0
LINE
  5
A1C
330
A02
100
AcDbEntity
  8
Unfold_Sketch_Bends004
100
AcDbLine
 10
146.152847690
 20
31.991951029
 30
0.000000000
 11
40.046946353
 21
164.813401486
 31
0.000000000
  0
ARC
  5
A1D
330
A02
100
AcDbEntity
  8
Unfold_Sketch_Internal002
100
AcDbCircle
 10
103.878339316
 20
23.818762053
 30
0.000000000
 40
3.000000000
100
AcDbArc
 50
128.620000000
 51
-51.380000000
  0
LINE
  5
A1E
330
A02
100
AcDbEntity
  8
Unfold_Sketch_Internal002
100
AcDbLine
 10
105.750796398
 20
21.474854104
 30
0.000000000
 11
109.657309647
 21
24.595615908
 31
0.000000000
  0
ARC
  5
A1F
330
A02
100
AcDbEntity
  8
Unfold_Sketch_Internal002
100
AcDbCircle
 10
113.155420364
 20
31.229862015
 30
0.000000000
 40
7.500000000
100
AcDbArc
 50
-117.801821522
 51
-164.958178478
  0
LINE
  5
A20
330
A02
100
AcDbEntity
  8
Unfold_Sketch_Internal002
100
AcDbLine
 10
105.912395482
 20
29.283431806
 30
0.000000000
 11
102.005882233
 21
26.162670002
 31
0.000000000
  0
ARC
  5
A21
330
A02
100
AcDbEntity
  8
Unfold_Sketch_Internal002
100
AcDbCircle
 10
22.738532411
 20
125.388106520
 30
0.000000000
 40
3.000000000
100
AcDbArc
 50
128.620000000
 51
-51.380000000
  0
LINE
  5
A22
330
A02
100
AcDbEntity
  8
Unfold_Sketch_Internal002
100
AcDbLine
 10
24.610989494
 20
123.044198571
 30
0.000000000
 11
28.517502742
 21
126.164960375
 31
0.000000000
  0
ARC
  5
A23
330
A02
100
AcDbEntity
  8
Unfold_Sketch_Internal002
100
AcDbCircle
 10
32.015613460
 20
132.799206482
 30
0.000000000
 40
7.500000000
100
AcDbArc
 50
-117.801821522
 51
-164.958178478
  0
LINE
  5
A24
330
A02
100
AcDbEntity
  8
Unfold_Sketch_Internal002
100
AcDbLine
 10
24.772588578
 20
130.852776274
 30
0.000000000
 11
20.866075329
 21
127.732014470
 31
0.000000000
  0
CIRCLE
  5
A25
330
A02
100
AcDbEntity
  8
Unfold_Sketch_Holes003
100
AcDbCircle
 10
143.387206666
 20
135.785434799
 30
0.000000000
 40
2.000000000
  0
CIRCLE
  5
A26
330
A02
100
AcDbEntity
  8
Unfold_Sketch_Holes003
100
AcDbCircle
 10
193.387206666
 20
135.785434799
 30
0.000000000
 40
2.000000000
  0
CIRCLE
  5
A27
330
A02
100
AcDbEntity
  8
Unfold_Sketch_Holes003
100
AcDbCircle
 10
243.387206666
 20
135.785434799
 30
0.000000000
 40
2.000000000
  0
CIRCLE
  5
A28
330
A02
100
AcDbEntity
  8
Unfold_Sketch_Holes003
100
AcDbCircle
 10
249.830043564
 20
149.356514245
 30
0.000000000
 40
2.000000000
  0
CIRCLE
  5
A29
330
A02
100
AcDbEntity
  8
Unfold_Sketch_Holes003
100
AcDbCircle
 10
169.600664139
 20
244.530705611
 30
0.000000000
 40
2.000000000
  0
CIRCLE
  5
A2A
330
A02
100
AcDbEntity
  8
Unfold_Sketch_Holes003
100
AcDbCircle
 10
160.005367182
 20
221.445422933
 30
0.000000000
 40
2.000000000
  0
CIRCLE
  5
A2B
330
A02
100
AcDbEntity
  8
Unfold_Sketch_Holes003
100
AcDbCircle
 10
150.410070226
 20
198.360140255
 30
0.000000000
 40
2.000000000
  0
CIRCLE
  5
A2C
330
A02
100
AcDbEntity
  8
Unfold_Sketch_Holes003
100
AcDbCircle
 10
203.018616504
 20
207.954212977
 30
0.000000000
 40
2.000000000
  0
ENDSEC
  0
SECTION
  2
OBJECTS
  0
DICTIONARY
  5
F000
330
0
100
AcDbDictionary
  3
ACAD_GROUP
350
F001
  0
DICTIONARY
  5
F001
330
F000
100
AcDbDictionary
  0
ENDSEC
  0
EOF