<?xml version="1.0"?>
<!DOCTYPE svg PUBLIC "-//W3C//DTD SVG 1.1//EN" "http://www.w3.org/Graphics/SVG/1.1/DTD/svg11.dtd">
<svg width="298.3906188159879mm" height="104.62070763168013mm" viewBox="0 0 298.3906188159879 104.62070763168013" xmlns="http://www.w3.org/2000/svg" version="1.1">
<g id="Part__Part2DObjectPython042" transform="translate(2.925398,101.695309) scale(1,-1)">
<path id="Part__Part2DObjectPython042_w0000"  d="M 52.51327412287186 88.76991118430779 L 52.51327412287186 86.25663706143595 L 52.51327412287186 51.25663706143596 L 52.51327412287185 50.00000000000004 L 50.00000000000003 50.00000000000003 L 2.1316282072803006e-14 50.00000000000001 L 4.263256414560601e-14 0.0 L 50.000000000000036 2.730559151104125e-14 L 52.51327412287187 2.842170943040401e-14 L 177.5132741228719 5.628535990112663e-14 L 180.02654824574375 5.684341886080802e-14 L 230.02654824574375 7.049621461632863e-14 L 232.5398223686156 7.105427357601002e-14 L 292.5398223686156 7.105427357601002e-14 L 292.5398223686156 50.00000000000007 L 232.5398223686156 50.00000000000007 L 230.02654824574375 50.00000000000008 L 180.02654824574375 50.00000000000007 L 177.5132741228719 50.00000000000007 L 177.51327412287188 51.25663706143598 L 177.51327412287185 86.25663706143598 L 177.5132741228719 88.76991118430782 L 177.5132741228719 98.76991118430782 L 52.51327412287186 98.76991118430779 L 52.51327412287186 88.76991118430779 " stroke="#000080" stroke-width="0.7 px" style="stroke-width:0.7;stroke-miterlimit:4;stroke-dasharray:none;stroke-linecap:square;fill:none;fill-opacity:1;fill-rule: evenodd"/>
<title>b'Part__Part2DObjectPython042'</title>
</g>
<g id="Part__Part2DObjectPython043" transform="translate(2.925398,101.695309) scale(1,-1)">
<path id="Part__Part2DObjectPython043_w0000"  d="M 231.28318530717968 50.00000000000007 L 231.28318530717968 7.105427357601002e-14 " stroke="#c00000" stroke-width="0.7 px" style="stroke-width:0.7;stroke-miterlimit:4;stroke-dasharray:3.0,2.0,0.2,2.0;stroke-linecap:square;fill:none;fill-opacity:1;fill-rule: evenodd"/>
<path id="Part__Part2DObjectPython043_w0001"  d="M 178.76991118430783 50.00000000000007 L 178.76991118430783 5.684341886080802e-14 " stroke="#c00000" stroke-width="0.7 px" style="stroke-width:0.7;stroke-miterlimit:4;stroke-dasharray:3.0,2.0,0.2,2.0;stroke-linecap:square;fill:none;fill-opacity:1;fill-rule: evenodd"/>
<path id="Part__Part2DObjectPython043_w0002"  d="M 177.5132741228719 50.628318530718026 L 52.51327412287186 50.628318530718005 " stroke="#c00000" stroke-width="0.7 px" style="stroke-width:0.7;stroke-miterlimit:4;stroke-dasharray:3.0,2.0,0.2,2.0;stroke-linecap:square;fill:none;fill-opacity:1;fill-rule: evenodd"/>
<path id="Part__Part2DObjectPython043_w0003"  d="M 51.25663706143593 50.00000000000004 L 51.25663706143595 2.842170943040401e-14 " stroke="#c00000" stroke-width="0.7 px" style="stroke-width:0.7;stroke-miterlimit:4;stroke-dasharray:3.0,2.0,0.2,2.0;stroke-linecap:square;fill:none;fill-opacity:1;fill-rule: evenodd"/>
<path id="Part__Part2DObjectPython043_w0004"  d="M 177.51327412287185 87.51327412287189 L 52.51327412287186 87.51327412287186 " stroke="#c00000" stroke-width="0.7 px" style="stroke-width:0.7;stroke-miterlimit:4;stroke-dasharray:3.0,2.0,0.2,2.0;stroke-linecap:square;fill:none;fill-opacity:1;fill-rule: evenodd"/>
<title>b'Part__Part2DObjectPython043'</title>
</g>
<g id="Part__Part2DObjectPython044" transform="translate(2.925398,101.695309) scale(1,-1)">
<path id="Part__Part2DObjectPython044_w0000"  d="M 32.500000000000036 21.500000000000014 A 2.5 2.5 0 0 1 32.5 16.5L 40.50000000000004 16.500000000000014 A 2.5 2.5 0 1 1 40.5 21.5L 32.500000000000036 21.500000000000014 " stroke="#ff5733" stroke-width="0.7 px" style="stroke-width:0.7;stroke-miterlimit:4;stroke-dasharray:none;stroke-linecap:square;fill:none;fill-opacity:1;fill-rule: evenodd"/>
<path id="Part__Part2DObjectPython044_w0001"  d="M 197.52654824574375 16.50000000000007 L 189.52654824574373 16.500000000000064 A 2.5 2.5 0 0 0 189.527 21.5L 197.52654824574373 21.50000000000007 A 2.5 2.5 0 0 0 197.527 16.5" stroke="#ff5733" stroke-width="0.7 px" style="stroke-width:0.7;stroke-miterlimit:4;stroke-dasharray:none;stroke-linecap:square;fill:none;fill-opacity:1;fill-rule: evenodd"/>
<title>b'Part__Part2DObjectPython044'</title>
</g>
<g id="Part__Part2DObjectPython045" transform="translate(2.925398,101.695309) scale(1,-1)">
<circle cx="20.000000000000036" cy="30.000000000000007" r="4.000000000000001" stroke="#ff5733" stroke-width="0.7 px" style="stroke-width:0.7;stroke-miterlimit:4;stroke-dasharray:none;stroke-linecap:square;fill:none"/>
<circle cx="210.02654824574375" cy="30.000000000000064" r="4.000000000000001" stroke="#ff5733" stroke-width="0.7 px" style="stroke-width:0.7;stroke-miterlimit:4;stroke-dasharray:none;stroke-linecap:square;fill:none"/>
<circle cx="62.51327412287187" cy="40.000000000000036" r="2.0000000000000004" stroke="#ff5733" stroke-width="0.7 px" style="stroke-width:0.7;stroke-miterlimit:4;stroke-dasharray:none;stroke-linecap:square;fill:none"/>
<circle cx="167.5132741228719" cy="40.000000000000064" r="2.0000000000000004" stroke="#ff5733" stroke-width="0.7 px" style="stroke-width:0.7;stroke-miterlimit:4;stroke-dasharray:none;stroke-linecap:square;fill:none"/>
<circle cx="7.000000000000043" cy="11.0" r="1.5000000000000004" stroke="#ff5733" stroke-width="0.7 px" style="stroke-width:0.7;stroke-miterlimit:4;stroke-dasharray:none;stroke-linecap:square;fill:none"/>
<circle cx="223.02654824574375" cy="11.000000000000064" r="1.5000000000000004" stroke="#ff5733" stroke-width="0.7 px" style="stroke-width:0.7;stroke-miterlimit:4;stroke-dasharray:none;stroke-linecap:square;fill:none"/>
<circle cx="210.02654824574375" cy="21.500000000000068" r="1.5000000000000004" stroke="#ff5733" stroke-width="0.7 px" style="stroke-width:0.7;stroke-miterlimit:4;stroke-dasharray:none;stroke-linecap:square;fill:none"/>
<circle cx="210.02654824574375" cy="38.50000000000007" r="1.5000000000000004" stroke="#ff5733" stroke-width="0.7 px" style="stroke-width:0.7;stroke-miterlimit:4;stroke-dasharray:none;stroke-linecap:square;fill:none"/>
<title>b'Part__Part2DObjectPython045'</title>
</g>
</svg>