<?xml version="1.0"?>
<!DOCTYPE svg PUBLIC "-//W3C//DTD SVG 1.1//EN" "http://www.w3.org/Graphics/SVG/1.1/DTD/svg11.dtd">
<svg width="675.6461943093263mm" height="710.6461943093262mm" viewBox="0 0 675.6461943093263 710.6461943093262" xmlns="http://www.w3.org/2000/svg" version="1.1">
<g id="Part__Part2DObjectPython003" transform="translate(6.623982,704.022212) scale(1,-1)">
<path id="Part__Part2DObjectPython003_w0000"  d="M 552.3982297150258 586.1991148575129 L 662.3982297150258 586.1991148575129 L 662.3982297150258 301.1991148575128 L 657.3982297150258 297.6991148575129 L 649.3982297150258 297.6991148575129 L 649.3982297150258 304.6991148575129 A 3.5 3.5 0 0 1 642.398 304.699L 642.3982297150258 289.6991148575129 L 657.3982297150258 289.6991148575129 L 662.3982297150258 286.1991148575129 L 662.3982297150258 146.19911485751285 L 657.3982297150258 142.69911485751277 L 642.3982297150258 142.69911485751274 L 645.4506006456654 117.88615389551177 A 3.5 3.5 0 0 1 652.398 118.741L 650.4351168785736 134.6991148575128 L 657.3982297150258 134.6991148575128 L 662.3982297150258 131.19911485751285 L 662.3982297150258 86.19911485751285 L 637.3982297150258 86.19911485751284 L 552.3982297150258 86.19911485751288 L 552.3982297150258 87.19911485751288 L 550.1991148575128 87.19911485751288 L 550.1991148575128 85.0 L 551.1991148575128 85.0 L 551.1991148575128 0.0 L 111.19911485751282 0.0 L 111.19911485751282 85.0 L 112.19911485751282 85.00000000000003 L 112.19911485751282 87.19911485751288 L 110.0 87.19911485751288 L 110.0 86.19911485751288 L 25.0 86.19911485751291 L 3.108624468950413e-15 86.19911485751288 L 4.263256414560601e-14 286.1991148575129 L 5.000000000000043 289.6991148575129 L 20.000000000000043 289.6991148575129 L 20.000000000000043 304.6991148575129 A 3.5 3.5 0 0 1 13 304.699L 13.000000000000028 297.6991148575129 L 5.000000000000028 297.6991148575129 L 5.051514762044461e-14 301.1991148575129 L 1.1368683772161603e-13 586.1991148575129 L 110.00000000000011 586.1991148575129 L 110.00000000000009 585.1991148575129 L 112.19911485751282 585.1991148575128 L 112.19911485751282 587.3982297150256 L 111.19911485751282 587.3982297150256 L 111.19911485751282 697.3982297150256 L 551.1991148575128 697.3982297150256 L 551.1991148575128 587.3982297150256 L 550.1991148575128 587.3982297150256 L 550.1991148575128 585.1991148575129 L 552.3982297150258 585.1991148575129 L 552.3982297150258 586.1991148575129 " stroke="#000080" stroke-width="0.7 px" style="stroke-width:0.7;stroke-miterlimit:4;stroke-dasharray:none;stroke-linecap:square;fill:none;fill-opacity:1;fill-rule: evenodd"/>
<title>b'Part__Part2DObjectPython003'</title>
</g>
<g id="Part__Part2DObjectPython004" transform="translate(6.623982,704.022212) scale(1,-1)">
<path id="Part__Part2DObjectPython004_w0000"  d="M 112.19911485751282 586.2986722862693 L 550.1991148575128 586.2986722862693 " stroke="#c00000" stroke-width="0.7 px" style="stroke-width:0.7;stroke-miterlimit:4;stroke-dasharray:3.0,2.0,0.2,2.0;stroke-linecap:square;fill:none;fill-opacity:1;fill-rule: evenodd"/>
<path id="Part__Part2DObjectPython004_w0001"  d="M 111.09955742875651 585.1991148575129 L 111.0995574287564 87.19911485751288 " stroke="#c00000" stroke-width="0.7 px" style="stroke-width:0.7;stroke-miterlimit:4;stroke-dasharray:3.0,2.0,0.2,2.0;stroke-linecap:square;fill:none;fill-opacity:1;fill-rule: evenodd"/>
<path id="Part__Part2DObjectPython004_w0002"  d="M 112.19911485751282 86.09955742875646 L 550.1991148575128 86.09955742875646 " stroke="#c00000" stroke-width="0.7 px" style="stroke-width:0.7;stroke-miterlimit:4;stroke-dasharray:3.0,2.0,0.2,2.0;stroke-linecap:square;fill:none;fill-opacity:1;fill-rule: evenodd"/>
<path id="Part__Part2DObjectPython004_w0003"  d="M 551.2986722862693 87.19911485751288 L 551.2986722862693 585.1991148575129 " stroke="#c00000" stroke-width="0.7 px" style="stroke-width:0.7;stroke-miterlimit:4;stroke-dasharray:3.0,2.0,0.2,2.0;stroke-linecap:square;fill:none;fill-opacity:1;fill-rule: evenodd"/>
<title>b'Part__Part2DObjectPython004'</title>
</g>
<g id="Part__Part2DObjectPython005" transform="translate(6.623982,704.022212) scale(1,-1)">
<path id="Part__Part2DObjectPython005_w0000"  d="M 246.1991148575128 417.6991148575129 L 246.1991148575128 247.6991148575129 L 416.1991148575128 247.6991148575129 L 416.1991148575128 417.6991148575129 L 246.1991148575128 417.6991148575129 " stroke="#ff5733" stroke-width="0.7 px" style="stroke-width:0.7;stroke-miterlimit:4;stroke-dasharray:none;stroke-linecap:square;fill:none;fill-opacity:1;fill-rule: evenodd"/>
<path id="Part__Part2DObjectPython005_w0001"  d="M 11.963112836452058 134.69911485751302 L 10.0 118.74081775609108 A 3.5 3.5 0 0 1 16.9476 117.886L 18.910741905812454 133.84445099693397 A 5 5 0 1 1 11.9631 134.699" stroke="#ff5733" stroke-width="0.7 px" style="stroke-width:0.7;stroke-miterlimit:4;stroke-dasharray:none;stroke-linecap:square;fill:none;fill-opacity:1;fill-rule: evenodd"/>
<title>b'Part__Part2DObjectPython005'</title>
</g>
<g id="Part__Part2DObjectPython006" transform="translate(6.623982,704.022212) scale(1,-1)">
<circle cx="431.1991148575128" cy="73.00000000000003" r="1.5" stroke="#ff5733" stroke-width="0.7 px" style="stroke-width:0.7;stroke-miterlimit:4;stroke-dasharray:none;stroke-linecap:square;fill:none"/>
<circle cx="231.19911485751282" cy="73.00000000000003" r="1.5" stroke="#ff5733" stroke-width="0.7 px" style="stroke-width:0.7;stroke-miterlimit:4;stroke-dasharray:none;stroke-linecap:square;fill:none"/>
<circle cx="431.1991148575128" cy="58.00000000000003" r="1.5" stroke="#ff5733" stroke-width="0.7 px" style="stroke-width:0.7;stroke-miterlimit:4;stroke-dasharray:none;stroke-linecap:square;fill:none"/>
<circle cx="231.19911485751282" cy="58.00000000000003" r="1.5" stroke="#ff5733" stroke-width="0.7 px" style="stroke-width:0.7;stroke-miterlimit:4;stroke-dasharray:none;stroke-linecap:square;fill:none"/>
<title>b'Part__Part2DObjectPython006'</title>
</g>
</svg>