<?xml version="1.0"?>
<!DOCTYPE svg PUBLIC "-//W3C//DTD SVG 1.1//EN" "http://www.w3.org/Graphics/SVG/1.1/DTD/svg11.dtd">
<svg width="594.6870792106587mm" height="604.6870792106586mm" viewBox="0 0 594.6870792106587 604.6870792106586" xmlns="http://www.w3.org/2000/svg" version="1.1">
<g id="Part__Part2DObjectPython008" transform="translate(5.830265,598.856814) scale(1,-1)">
<path id="Part__Part2DObjectPython008_w0000"  d="M 511.51327412287185 523.0265482457437 L 511.51327412287185 593.0265482457437 L 71.51327412287186 593.0265482457437 L 71.51327412287185 523.0265482457437 L 72.51327412287185 523.0265482457437 L 72.51327412287195 520.5132741228718 L 70.00000000000013 520.5132741228717 L 70.00000000000013 521.5132741228717 L 1.2789769243681803e-13 521.5132741228718 L 4.263256414560601e-14 264.5132741228718 L 5.000000000000043 261.0132741228718 L 13.000000000000057 261.0132741228718 L 13.000000000000052 273.0132741228718 A 3.5 3.5 0 0 0 20 273.013L 20.000000000000043 253.0132741228718 L 5.000000000000028 253.0132741228718 L 4.263256414560601e-14 249.51327412287182 L 2.842170943040401e-14 46.51327412287182 L 25.00000000000002 46.51327412287179 L 70.00000000000003 46.51327412287179 L 70.00000000000001 47.51327412287185 L 72.51327412287185 47.51327412287185 L 72.51327412287185 45.00000000000002 L 71.51327412287188 45.00000000000006 L 71.51327412287185 2.1316282072803006e-14 L 511.51327412287185 5.684341886080802e-14 L 511.51327412287185 45.00000000000002 L 510.51327412287185 45.000000000000014 L 510.51327412287196 47.51327412287185 L 513.0265482457438 47.51327412287185 L 513.0265482457438 46.51327412287185 L 558.0265482457438 46.51327412287185 L 583.0265482457438 46.51327412287188 L 583.0265482457437 94.51327412287186 L 578.0265482457438 98.01327412287185 L 571.0634354092915 98.01327412287188 L 573.0265482457437 82.05497702145004 A 3.5 3.5 0 1 0 566.079 81.2003L 563.0265482457438 106.0132741228719 L 578.0265482457438 106.01327412287193 L 583.0265482457438 109.51327412287188 L 583.0265482457437 249.51327412287185 L 578.0265482457438 253.01327412287185 L 563.0265482457438 253.01327412287185 L 563.0265482457438 273.01327412287185 A 3.5 3.5 0 0 0 570.027 273.013L 570.0265482457438 261.01327412287185 L 578.0265482457438 261.01327412287185 L 583.0265482457438 264.51327412287185 L 583.0265482457437 521.5132741228718 L 513.0265482457437 521.5132741228718 L 513.0265482457437 520.5132741228718 L 510.51327412287185 520.5132741228718 L 510.51327412287185 523.0265482457437 L 511.51327412287185 523.0265482457437 " stroke="#000080" stroke-width="0.7 px" style="stroke-width:0.7;stroke-miterlimit:4;stroke-dasharray:none;stroke-linecap:square;fill:none;fill-opacity:1;fill-rule: evenodd"/>
<title>b'Part__Part2DObjectPython008'</title>
</g>
<g id="Part__Part2DObjectPython009" transform="translate(5.830265,598.856814) scale(1,-1)">
<path id="Part__Part2DObjectPython009_w0000"  d="M 511.7699111843079 47.51327412287185 L 511.7699111843078 520.5132741228718 " stroke="#c00000" stroke-width="0.7 px" style="stroke-width:0.7;stroke-miterlimit:4;stroke-dasharray:3.0,2.0,0.2,2.0;stroke-linecap:square;fill:none;fill-opacity:1;fill-rule: evenodd"/>
<path id="Part__Part2DObjectPython009_w0001"  d="M 71.25663706143604 520.5132741228718 L 71.25663706143592 47.51327412287185 " stroke="#c00000" stroke-width="0.7 px" style="stroke-width:0.7;stroke-miterlimit:4;stroke-dasharray:3.0,2.0,0.2,2.0;stroke-linecap:square;fill:none;fill-opacity:1;fill-rule: evenodd"/>
<path id="Part__Part2DObjectPython009_w0002"  d="M 72.51327412287185 46.25663706143593 L 510.51327412287185 46.25663706143593 " stroke="#c00000" stroke-width="0.7 px" style="stroke-width:0.7;stroke-miterlimit:4;stroke-dasharray:3.0,2.0,0.2,2.0;stroke-linecap:square;fill:none;fill-opacity:1;fill-rule: evenodd"/>
<path id="Part__Part2DObjectPython009_w0003"  d="M 510.51327412287185 521.7699111843077 L 72.51327412287185 521.7699111843077 " stroke="#c00000" stroke-width="0.7 px" style="stroke-width:0.7;stroke-miterlimit:4;stroke-dasharray:3.0,2.0,0.2,2.0;stroke-linecap:square;fill:none;fill-opacity:1;fill-rule: evenodd"/>
<title>b'Part__Part2DObjectPython009'</title>
</g>
<g id="Part__Part2DObjectPython010" transform="translate(5.830265,598.856814) scale(1,-1)">
<path id="Part__Part2DObjectPython010_w0000"  d="M 206.51327412287185 378.01327412287185 L 206.51327412287185 208.01327412287185 L 376.51327412287185 208.01327412287185 L 376.51327412287185 378.01327412287185 L 206.51327412287185 378.01327412287185 " stroke="#ff5733" stroke-width="0.7 px" style="stroke-width:0.7;stroke-miterlimit:4;stroke-dasharray:none;stroke-linecap:square;fill:none;fill-opacity:1;fill-rule: evenodd"/>
<path id="Part__Part2DObjectPython010_w0001"  d="M 11.963112836453185 98.01327412287179 L 10.000000000009683 82.05497702145715 A 3.5 3.5 0 1 1 16.9476 81.2003L 18.910741905813254 97.15861026229237 A 5 5 0 1 1 11.9631 98.0133" stroke="#ff5733" stroke-width="0.7 px" style="stroke-width:0.7;stroke-miterlimit:4;stroke-dasharray:none;stroke-linecap:square;fill:none;fill-opacity:1;fill-rule: evenodd"/>
<path id="Part__Part2DObjectPython010_w0002"  d="M 345.51327412287185 568.0265482457437 L 351.51327412287185 568.0265482457437 L 351.51327412287185 548.0265482457437 L 345.51327412287185 548.0265482457437 L 345.51327412287185 568.0265482457437 " stroke="#ff5733" stroke-width="0.7 px" style="stroke-width:0.7;stroke-miterlimit:4;stroke-dasharray:none;stroke-linecap:square;fill:none;fill-opacity:1;fill-rule: evenodd"/>
<path id="Part__Part2DObjectPython010_w0003"  d="M 231.51327412287185 568.0265482457437 L 237.51327412287185 568.0265482457437 L 237.51327412287185 548.0265482457437 L 231.51327412287185 548.0265482457437 L 231.51327412287185 568.0265482457437 " stroke="#ff5733" stroke-width="0.7 px" style="stroke-width:0.7;stroke-miterlimit:4;stroke-dasharray:none;stroke-linecap:square;fill:none;fill-opacity:1;fill-rule: evenodd"/>
<title>b'Part__Part2DObjectPython010'</title>
</g>
<g id="Part__Part2DObjectPython011" transform="translate(5.830265,598.856814) scale(1,-1)">
<circle cx="557.0265482457438" cy="209.51327412287188" r="2.0" stroke="#ff5733" stroke-width="0.7 px" style="stroke-width:0.7;stroke-miterlimit:4;stroke-dasharray:none;stroke-linecap:square;fill:none"/>
<circle cx="557.0265482457438" cy="149.51327412287185" r="2.0" stroke="#ff5733" stroke-width="0.7 px" style="stroke-width:0.7;stroke-miterlimit:4;stroke-dasharray:none;stroke-linecap:square;fill:none"/>
<title>b'Part__Part2DObjectPython011'</title>
</g>
</svg>