<?xml version="1.0"?>
<!DOCTYPE svg PUBLIC "-//W3C//DTD SVG 1.1//EN" "http://www.w3.org/Graphics/SVG/1.1/DTD/svg11.dtd">
<svg width="170.14751462995565mm" height="241.7444497714326mm" viewBox="0 0 170.14751462995565 241.7444497714326" xmlns="http://www.w3.org/2000/svg" version="1.1">
<g id="Part__Part2DObjectPython019" transform="translate(1.668113,240.076337) scale(1,-1)">
<path id="Part__Part2DObjectPython019_w0000"  d="M 131.81128885289746 128.40822399437454 L 130.197138547483 128.40822399437454 L 130.19713854748306 125.58079060614371 L 152.0424711755963 98.23519786495247 L 138.57109385551274 71.42993731594945 L 109.79750184196662 43.643602497589534 L 107.76361647300577 41.6795022275398 L 64.60322845268665 7.138913257006688e-15 L 3.3918089819558477e-15 66.89860143149467 L 43.16038802031914 108.57810365903444 L 55.66423868858109 95.62998725293869 L 57.69812405754189 97.59408752298849 L 65.19713854748302 125.58079060614384 L 65.19713854748301 128.40822399437462 L 65.1971385474832 238.40822399437465 L 130.19713854748323 238.40822399437457 L 131.8112888528977 238.4082239943745 L 166.8112888528977 238.40822399437445 L 166.81128885289752 128.40822399437442 L 131.81128885289746 128.40822399437454 " stroke="#000080" stroke-width="0.7 px" style="stroke-width:0.7;stroke-miterlimit:4;stroke-dasharray:none;stroke-linecap:square;fill:none;fill-opacity:1;fill-rule: evenodd"/>
<title>b'Part__Part2DObjectPython019'</title>
</g>
<g id="Part__Part2DObjectPython020" transform="translate(1.668113,240.076337) scale(1,-1)">
<path id="Part__Part2DObjectPython020_w0000"  d="M 108.78055915748622 42.66155236256464 L 56.68118137306148 96.61203738796357 " stroke="#c00000" stroke-width="0.7 px" style="stroke-width:0.7;stroke-miterlimit:4;stroke-dasharray:3.0,2.0,0.2,2.0;stroke-linecap:square;fill:none;fill-opacity:1;fill-rule: evenodd"/>
<path id="Part__Part2DObjectPython020_w0001"  d="M 130.19713854748306 126.99450730025913 L 65.19713854748302 126.99450730025924 " stroke="#c00000" stroke-width="0.7 px" style="stroke-width:0.7;stroke-miterlimit:4;stroke-dasharray:3.0,2.0,0.2,2.0;stroke-linecap:square;fill:none;fill-opacity:1;fill-rule: evenodd"/>
<path id="Part__Part2DObjectPython020_w0002"  d="M 131.00421370019023 128.40822399437454 L 131.00421370019046 238.40822399437457 " stroke="#c00000" stroke-width="0.7 px" style="stroke-width:0.7;stroke-miterlimit:4;stroke-dasharray:3.0,2.0,0.2,2.0;stroke-linecap:square;fill:none;fill-opacity:1;fill-rule: evenodd"/>
<title>b'Part__Part2DObjectPython020'</title>
</g>
<g id="Part__Part2DObjectPython021" transform="translate(1.668113,240.076337) scale(1,-1)">
<circle cx="104.69586835826125" cy="230.40822399437457" r="2.0000000000000004" stroke="#ff5733" stroke-width="0.7 px" style="stroke-width:0.7;stroke-miterlimit:4;stroke-dasharray:none;stroke-linecap:square;fill:none"/>
<circle cx="69.69586835826124" cy="230.40822399437465" r="2.0000000000000004" stroke="#ff5733" stroke-width="0.7 px" style="stroke-width:0.7;stroke-miterlimit:4;stroke-dasharray:none;stroke-linecap:square;fill:none"/>
<title>b'Part__Part2DObjectPython021'</title>
</g>
</svg>