<?xml version="1.0"?>
<!DOCTYPE svg PUBLIC "-//W3C//DTD SVG 1.1//EN" "http://www.w3.org/Graphics/SVG/1.1/DTD/svg11.dtd">
<svg width="179.93407058685943mm" height="241.40395039679166mm" viewBox="0 0 179.93407058685943 241.40395039679166" xmlns="http://www.w3.org/2000/svg" version="1.1">
<g id="Part__Part2DObjectPython009" transform="translate(1.764060,239.639891) scale(1,-1)">
<path id="Part__Part2DObjectPython009_w0000"  d="M 43.160388020319076 108.57810365903443 L 55.66423868858104 95.6299872529387 L 57.472136794323966 97.37585415964962 L 64.97115128426503 125.36255724280497 L 64.97115128426503 127.8758313656768 L 64.97115128426503 237.8758313656768 L 129.97115128426503 237.8758313656768 L 131.40595155574454 237.8758313656768 L 176.40595155574454 237.8758313656768 L 176.40595155574454 127.8758313656768 L 131.40595155574454 127.8758313656768 L 129.97115128426503 127.8758313656768 L 129.9711512842651 125.36255724280497 L 151.81648391237837 98.01696450161377 L 138.34510659229483 71.2117039526107 L 109.57151457874879 43.425369134250786 L 107.76361647300585 41.67950222753987 L 64.60322845268678 1.4210854715202004e-14 L 3.552713678800501e-15 66.89860143149455 L 43.160388020319076 108.57810365903443 " stroke="#000080" stroke-width="0.7 px" style="stroke-width:0.7;stroke-miterlimit:4;stroke-dasharray:none;stroke-linecap:square;fill:none;fill-opacity:1;fill-rule: evenodd"/>
<title>b'Part__Part2DObjectPython009'</title>
</g>
<g id="Part__Part2DObjectPython010" transform="translate(1.764060,239.639891) scale(1,-1)">
<path id="Part__Part2DObjectPython010_w0000"  d="M 64.97115128426503 126.61919430424088 L 129.97115128426503 126.61919430424088 " stroke="#c00000" stroke-width="0.7 px" style="stroke-width:0.7;stroke-miterlimit:4;stroke-dasharray:3.0,2.0,0.2,2.0;stroke-linecap:square;fill:none;fill-opacity:1;fill-rule: evenodd"/>
<path id="Part__Part2DObjectPython010_w0001"  d="M 130.68855142000479 127.8758313656768 L 130.68855142000479 237.8758313656768 " stroke="#c00000" stroke-width="0.7 px" style="stroke-width:0.7;stroke-miterlimit:4;stroke-dasharray:3.0,2.0,0.2,2.0;stroke-linecap:square;fill:none;fill-opacity:1;fill-rule: evenodd"/>
<path id="Part__Part2DObjectPython010_w0002"  d="M 56.5681877414525 96.50292070629415 L 108.66756552587732 42.55243568089533 " stroke="#c00000" stroke-width="0.7 px" style="stroke-width:0.7;stroke-miterlimit:4;stroke-dasharray:3.0,2.0,0.2,2.0;stroke-linecap:square;fill:none;fill-opacity:1;fill-rule: evenodd"/>
<title>b'Part__Part2DObjectPython010'</title>
</g>
<g id="Part__Part2DObjectPython011" transform="translate(1.764060,239.639891) scale(1,-1)">
<path id="Part__Part2DObjectPython011_w0000"  d="M 158.40595155576136 222.87583136567662 L 158.40595155576233 217.8758313656723 A 7.5 7.5 0 1 1 164.406 217.876L 164.40595155573936 222.8758313656602 A 3 3 0 1 1 158.406 222.876" stroke="#ff5733" stroke-width="0.7 px" style="stroke-width:0.7;stroke-miterlimit:4;stroke-dasharray:none;stroke-linecap:square;fill:none;fill-opacity:1;fill-rule: evenodd"/>
<title>b'Part__Part2DObjectPython011'</title>
</g>
<g id="Part__Part2DObjectPython012" transform="translate(1.764060,239.639891) scale(1,-1)">
<circle cx="104.46988109504308" cy="229.8758313656768" r="2.0" stroke="#ff5733" stroke-width="0.7 px" style="stroke-width:0.7;stroke-miterlimit:4;stroke-dasharray:none;stroke-linecap:square;fill:none"/>
<circle cx="69.46988109504308" cy="229.8758313656768" r="2.0" stroke="#ff5733" stroke-width="0.7 px" style="stroke-width:0.7;stroke-miterlimit:4;stroke-dasharray:none;stroke-linecap:square;fill:none"/>
<title>b'Part__Part2DObjectPython012'</title>
</g>
</svg>